<svg id="Capa_1" enable-background="new 0 0 512 512" height="512" viewBox="0 0 512 512" width="512" xmlns="http://www.w3.org/2000/svg"><g><path d="m220.059 271.312 16.047 4.012c.282.07.501.289.571.57l4.012 16.048c1.788 7.15 7.941 11.954 15.312 11.954s13.524-4.804 15.312-11.954l4.012-16.048c.07-.281.289-.5.571-.57l16.047-4.012c7.151-1.788 11.955-7.941 11.955-15.312s-4.804-13.524-11.956-15.312l-16.047-4.012c-.282-.07-.5-.289-.571-.57l-4.012-16.048c-1.788-7.15-7.941-11.954-15.312-11.954s-13.524 4.804-15.312 11.954l-4.012 16.048c-.07.281-.289.5-.57.57l-16.048 4.012c-7.151 1.788-11.955 7.941-11.955 15.312s4.804 13.524 11.956 15.312zm3.637-16.072 16.049-4.012c5.666-1.417 10.066-5.817 11.483-11.484l4.012-16.048c.076-.305.148-.593.76-.593s.684.288.76.593l4.012 16.048c1.417 5.667 5.817 10.067 11.484 11.484l16.047 4.012c.305.076.594.148.594.76s-.289.684-.593.76l-16.048 4.012c-5.667 1.417-10.066 5.817-11.483 11.484l-4.012 16.048c-.076.305-.149.593-.76.593-.612 0-.684-.288-.76-.593l-4.012-16.048c-1.417-5.667-5.817-10.067-11.484-11.484l-16.047-4.012c-.305-.076-.594-.148-.594-.76s.288-.684.592-.76z"/><path d="m197.884 208.706c-3.456-2.283-8.108-1.332-10.392 2.124-8.859 13.413-13.542 29.033-13.542 45.17 0 45.242 36.808 82.05 82.05 82.05s82.05-36.808 82.05-82.05-36.808-82.05-82.05-82.05c-16.138 0-31.757 4.683-45.169 13.542-3.456 2.283-4.407 6.936-2.124 10.392s6.935 4.407 10.392 2.124c10.952-7.234 23.712-11.058 36.901-11.058 36.971 0 67.05 30.078 67.05 67.05s-30.079 67.05-67.05 67.05-67.05-30.078-67.05-67.05c0-13.189 3.824-25.949 11.059-36.902 2.283-3.457 1.331-8.11-2.125-10.392z"/><path d="m273.184 461.594c4.128-.341 7.198-3.964 6.857-8.092s-3.979-7.21-8.092-6.858c-5.264.435-10.63.655-15.95.655-105.483 0-191.3-85.816-191.3-191.3 0-33.634 8.849-66.708 25.589-95.645 2.074-3.586.849-8.174-2.737-10.248-3.584-2.072-8.173-.849-10.247 2.736-18.058 31.219-27.604 66.89-27.604 103.158 0 113.754 92.546 206.3 206.3 206.3 5.73 0 11.512-.238 17.184-.706z"/><path d="m187.232 61.441c-3.905 1.381-5.952 5.665-4.572 9.57s5.662 5.95 9.571 4.572c20.433-7.221 41.887-10.883 63.769-10.883 105.483 0 191.3 85.816 191.3 191.3 0 36.062-10.003 70.934-28.981 101.276-2.267-.709-4.677-1.092-7.174-1.092-13.271 0-24.067 10.796-24.067 24.066 0 4.36 1.172 8.45 3.208 11.981-15.924 15.713-34.251 28.396-54.579 37.726-3.765 1.728-5.416 6.181-3.688 9.945 1.263 2.751 3.98 4.373 6.821 4.373 1.046 0 2.11-.221 3.124-.686 22.197-10.188 42.183-24.077 59.499-41.314 2.965 1.308 6.239 2.041 9.682 2.041 13.271 0 24.066-10.796 24.066-24.066 0-5.322-1.739-10.243-4.674-14.232 20.794-32.914 31.763-70.816 31.763-110.018 0-113.754-92.546-206.3-206.3-206.3-23.589 0-46.726 3.95-68.768 11.741zm223.913 327.875c-5 0-9.067-4.067-9.067-9.066s4.067-9.066 9.067-9.066c4.999 0 9.066 4.067 9.066 9.066s-4.067 9.066-9.066 9.066z"/><path d="m7.5 263.5c4.142 0 7.5-3.357 7.5-7.5 0-61.486 22.926-119.54 64.698-164.3 5.325 3.853 11.859 6.133 18.919 6.133 17.838 0 32.35-14.512 32.35-32.35 0-4.882-1.093-9.511-3.038-13.665 38.339-24.105 82.458-36.818 128.071-36.818 4.142 0 7.5-3.357 7.5-7.5s-3.358-7.5-7.5-7.5c-49.014 0-96.41 13.821-137.472 40.016-5.495-4.305-12.406-6.882-19.912-6.882-17.838 0-32.35 14.512-32.35 32.35 0 5.322 1.3 10.344 3.587 14.777-45.091 47.705-69.853 109.872-69.853 175.739 0 4.143 3.358 7.5 7.5 7.5zm91.117-215.366c9.567 0 17.35 7.783 17.35 17.35s-7.783 17.35-17.35 17.35-17.35-7.783-17.35-17.35 7.783-17.35 17.35-17.35z"/><path d="m504.5 248.5c-4.142 0-7.5 3.357-7.5 7.5 0 132.888-108.112 241-241 241-4.142 0-7.5 3.357-7.5 7.5s3.358 7.5 7.5 7.5c68.38 0 132.668-26.629 181.02-74.98 48.352-48.352 74.98-112.64 74.98-181.02 0-4.143-3.358-7.5-7.5-7.5z"/><path d="m359.452 140.816c-6.285 0-12.153 1.808-17.123 4.922-24.561-19.24-54.98-29.771-86.329-29.771-68.502 0-126.825 49.724-138.078 116.619-10.605 2.511-18.522 12.052-18.522 23.414s7.916 20.903 18.521 23.414c11.253 66.896 69.576 116.619 138.079 116.619 32.032 0 62.179-10.527 87.183-30.443 3.24-2.58 3.774-7.299 1.193-10.539s-7.298-3.774-10.539-1.193c-22.32 17.778-49.236 27.176-77.837 27.176-60.754 0-112.537-43.794-123.077-102.905 8.583-3.681 14.611-12.213 14.611-22.128s-6.028-18.446-14.61-22.128c10.54-59.111 62.324-102.905 123.077-102.905 27.422 0 54.042 9.029 75.73 25.546-2.935 4.868-4.628 10.567-4.628 16.654 0 17.838 14.512 32.35 32.35 32.35 3.569 0 7-.589 10.213-1.661 7.451 16.254 11.368 34.135 11.368 52.145 0 28.602-9.397 55.517-27.176 77.837-2.581 3.24-2.046 7.959 1.193 10.539 1.381 1.101 3.03 1.634 4.668 1.634 2.206 0 4.391-.968 5.871-2.827 19.916-25.004 30.443-55.15 30.443-87.183 0-20.808-4.682-41.465-13.557-60.137 5.762-5.844 9.326-13.86 9.326-22.696 0-17.84-14.512-32.353-32.35-32.353zm-235.985 106.118c4.999 0 9.066 4.067 9.066 9.066s-4.067 9.066-9.066 9.066-9.067-4.067-9.067-9.066 4.067-9.066 9.067-9.066zm218.635-73.767c0-9.567 7.783-17.351 17.35-17.351s17.35 7.783 17.35 17.351c0 9.566-7.783 17.35-17.35 17.35s-17.35-7.784-17.35-17.35z"/><path d="m355.4 31.566h9.067v9.067c0 4.143 3.358 7.5 7.5 7.5s7.5-3.357 7.5-7.5v-9.067h9.066c4.142 0 7.5-3.357 7.5-7.5s-3.358-7.5-7.5-7.5h-9.066v-9.066c0-4.143-3.358-7.5-7.5-7.5s-7.5 3.357-7.5 7.5v9.066h-9.067c-4.142 0-7.5 3.357-7.5 7.5s3.358 7.5 7.5 7.5z"/><path d="m156.6 480.434h-9.067v-9.067c0-4.143-3.358-7.5-7.5-7.5s-7.5 3.357-7.5 7.5v9.067h-9.066c-4.142 0-7.5 3.357-7.5 7.5s3.358 7.5 7.5 7.5h9.066v9.066c0 4.143 3.358 7.5 7.5 7.5s7.5-3.357 7.5-7.5v-9.066h9.067c4.142 0 7.5-3.357 7.5-7.5s-3.358-7.5-7.5-7.5z"/><path d="m48.917 381.033c-4.142 0-7.5 3.357-7.5 7.5v16.567c0 4.143 3.358 7.5 7.5 7.5s7.5-3.357 7.5-7.5v-16.566c0-4.143-3.358-7.501-7.5-7.501z"/><path d="m48.917 447.3c-4.142 0-7.5 3.357-7.5 7.5v16.566c0 4.143 3.358 7.5 7.5 7.5s7.5-3.357 7.5-7.5v-16.566c0-4.143-3.358-7.5-7.5-7.5z"/><path d="m90.334 422.45h-16.567c-4.142 0-7.5 3.357-7.5 7.5s3.358 7.5 7.5 7.5h16.567c4.142 0 7.5-3.357 7.5-7.5s-3.358-7.5-7.5-7.5z"/><path d="m24.067 422.45h-16.567c-4.142 0-7.5 3.357-7.5 7.5s3.358 7.5 7.5 7.5h16.567c4.142 0 7.5-3.357 7.5-7.5s-3.358-7.5-7.5-7.5z"/><path d="m463.083 64.7c4.142 0 7.5-3.357 7.5-7.5v-16.566c0-4.143-3.358-7.5-7.5-7.5s-7.5 3.357-7.5 7.5v16.566c0 4.143 3.358 7.5 7.5 7.5z"/><path d="m463.083 130.967c4.142 0 7.5-3.357 7.5-7.5v-16.567c0-4.143-3.358-7.5-7.5-7.5s-7.5 3.357-7.5 7.5v16.566c0 4.143 3.358 7.501 7.5 7.501z"/><path d="m487.933 89.55h16.567c4.142 0 7.5-3.357 7.5-7.5s-3.358-7.5-7.5-7.5h-16.567c-4.142 0-7.5 3.357-7.5 7.5 0 4.142 3.358 7.5 7.5 7.5z"/><path d="m421.667 89.55h16.567c4.142 0 7.5-3.357 7.5-7.5s-3.358-7.5-7.5-7.5h-16.567c-4.142 0-7.5 3.357-7.5 7.5 0 4.142 3.357 7.5 7.5 7.5z"/></g></svg>