<svg id="Capa_1" enable-background="new 0 0 512 512" height="512" viewBox="0 0 512 512" width="512" xmlns="http://www.w3.org/2000/svg"><g><path d="m426.993 242.478v-44.863c0-4.15-3.365-7.515-7.515-7.515h-4.176v-34.845c0-14.926-12.143-27.068-27.068-27.068h-5.231v-14.59c0-14.926-12.143-27.069-27.068-27.069h-81.72c-14.926 0-27.069 12.143-27.069 27.069v14.59h-24.529c-15.066 0-29.116 7.26-37.865 19.458h-102.277c-2.031-7.291-8.714-12.664-16.644-12.664h-48.539c-9.535 0-17.292 7.757-17.292 17.292v38.672c0 9.535 7.757 17.292 17.292 17.292h48.539c7.93 0 14.613-5.372 16.644-12.664h69.758l-31.617 46.664h-28.999c-50.518 0-91.617 41.1-91.617 91.618s41.099 91.617 91.617 91.617h59.754c4.15 0 7.515-3.365 7.515-7.515s-3.365-7.515-7.515-7.515h-59.754c-42.231 0-76.588-34.357-76.588-76.588s34.357-76.588 76.588-76.588h241.896c4.15 0 7.515-3.364 7.515-7.515 0-4.15-3.365-7.515-7.515-7.515h-91.559l25.051-37.108h144.958v37.108h-48.391c-4.15 0-7.515 3.365-7.515 7.515s3.364 7.515 7.515 7.515h56.81c42.231 0 76.588 34.357 76.588 76.588s-34.357 76.588-76.588 76.588h-238.952c-4.15 0-7.515 3.364-7.515 7.515s3.364 7.515 7.515 7.515h238.952c50.518 0 91.617-41.099 91.617-91.617.001-48.295-37.562-87.978-85.006-91.377zm-358.9-51.533c0 1.248-1.015 2.262-2.262 2.262h-48.539c-1.248 0-2.262-1.015-2.262-2.262v-38.672c0-1.248 1.015-2.262 2.262-2.262h48.539c1.248 0 2.262 1.015 2.262 2.262zm15.029-10.401v-17.869h91.4l-12.107 17.869zm179.89 9.556c-2.497 0-4.831 1.24-6.228 3.31l-32.962 48.827h-85.052l57.693-85.15c5.885-8.686 15.663-13.871 26.155-13.871h67.712c4.15 0 7.515-3.364 7.515-7.515 0-4.15-3.364-7.515-7.515-7.515h-28.154v-14.59c0-6.639 5.401-12.039 12.039-12.039h81.72c6.638 0 12.039 5.401 12.039 12.039v14.59h-47.586c-4.15 0-7.515 3.365-7.515 7.515s3.365 7.515 7.515 7.515h67.846c6.638 0 12.039 5.401 12.039 12.039v34.845z"/><path d="m419.878 392.051c31.914-.217 57.813-26.238 57.813-58.202 0-32.098-26.114-58.212-58.212-58.212-.001 0-.002 0-.003 0 0 0-.001 0-.002 0h-326.947c-.001 0-.001 0-.002 0s-.002 0-.003 0c-32.098 0-58.212 26.113-58.212 58.212 0 31.964 25.898 57.985 57.813 58.202.135.007.268.02.405.02h326.946c.136.001.269-.012.404-.02zm42.783-58.202c0 23.811-19.372 43.183-43.183 43.183s-43.182-19.372-43.182-43.183 19.372-43.182 43.182-43.182c23.811 0 43.183 19.371 43.183 43.182zm-82.175-43.182c-11.795 10.66-19.22 26.069-19.22 43.182 0 17.119 7.43 32.532 19.232 43.193h-86.857c11.802-10.661 19.232-26.074 19.232-43.193 0-17.113-7.425-32.522-19.22-43.182zm-125.825 0c23.811 0 43.183 19.371 43.183 43.182s-19.372 43.183-43.183 43.183-43.182-19.372-43.182-43.183 19.371-43.182 43.182-43.182zm-38.992 0c-11.795 10.66-19.22 26.069-19.22 43.182 0 17.119 7.43 32.532 19.232 43.193h-84.179c11.802-10.661 19.232-26.074 19.232-43.193 0-17.113-7.425-32.522-19.22-43.182zm-166.33 43.182c0-23.811 19.372-43.182 43.183-43.182s43.182 19.371 43.182 43.182-19.372 43.183-43.182 43.183c-23.811 0-43.183-19.372-43.183-43.183z"/></g></svg>