<?xml version="1.0" encoding="iso-8859-1"?>
<!-- Generator: Adobe Illustrator 19.0.0, SVG Export Plug-In . SVG Version: 6.00 Build 0)  -->
<svg version="1.1" id="Capa_1" xmlns="http://www.w3.org/2000/svg" xmlns:xlink="http://www.w3.org/1999/xlink" x="0px" y="0px"
	 viewBox="0 0 512 512" style="enable-background:new 0 0 512 512;" xml:space="preserve">
<g>
	<g>
		<path d="M402.071,286.213c-24.825,0-47.117,10.991-62.312,28.345c-7.629-20.084-27.066-34.4-49.792-34.4h-13.715v-0.983
			l17.771-14.271c19.243-15.454,30.304-38.473,30.345-63.155c0.003-2.025,0.007-3.906,0.01-5.572
			c12.517-1.851,22.154-12.663,22.154-25.686v-7.918h8.03c5.74,0,10.876-3.426,13.085-8.726c2.204-5.29,1.024-11.335-3.006-15.401
			c-5.832-5.885-15.278-11.169-27.467-15.664c-1.142-6.532-2.995-16.481-5.532-28.035c-0.889-4.046-4.885-6.604-8.934-5.717
			c-4.046,0.888-6.605,4.887-5.717,8.933c1.632,7.433,2.972,14.175,4.017,19.742c-26.034-6.961-60.042-11.031-96.838-11.031
			c-36.794,0-70.8,4.069-96.834,11.029c2.292-12.186,6.12-30.686,11.207-48.718c11.899-42.18,21.88-51.21,25.619-53.133
			c0.936-0.482,6.626-2.624,26.729,2.57c21.459,5.543,45.096,5.543,66.556,0c20.105-5.193,25.793-3.052,26.729-2.57
			c3.514,1.808,12.908,10.136,24.229,48.322c1.177,3.971,5.345,6.234,9.322,5.058c3.971-1.177,6.236-5.35,5.058-9.322
			C308.421,11.46,295.338,4.727,291.04,2.514c-7.292-3.753-19.158-3.313-37.344,1.385c-19.041,4.917-40.013,4.918-59.053,0
			c-18.184-4.697-30.051-5.138-37.345-1.385c-4.511,2.321-18.237,9.385-33.192,62.399c-6.445,22.848-10.839,45.83-12.942,57.867
			c-12.188,4.494-21.634,9.779-27.465,15.663c-4.031,4.066-5.211,10.112-3.006,15.402c2.209,5.301,7.345,8.726,13.085,8.726h8.03
			v7.918c0,13.022,9.635,23.833,22.151,25.686c0.004,2.869,0.008,6.33,0.012,9.882l0.004,3.682
			c0.023,19.602,8.801,37.88,24.083,50.148l24.03,19.292v0.978h-13.715c-27.227,0-49.733,20.545-52.864,46.944l-14.787,2.746
			c-0.252,0.047-0.502,0.106-0.749,0.18c-18.293,5.386-33.999,16.305-45.422,31.575c-11.422,15.271-17.46,33.422-17.46,52.492v1.235
			c0,4.142,3.358,7.5,7.5,7.5c4.142,0,7.5-3.357,7.5-7.5v-1.235c0-15.806,5.004-30.85,14.472-43.507
			c9.392-12.557,22.279-21.563,37.287-26.064l16.327-3.033l37.51,36.472l-8.34,21.022c-2.328,5.867-0.394,12.566,4.705,16.289
			l72.617,53.029v28.678H98.176v-60.997c0-4.142-3.358-7.5-7.5-7.5c-4.142,0-7.5,3.357-7.5,7.5v60.997H45.179
			c-1.701,0-3.085-1.385-3.085-3.086v-43.359c0-4.142-3.358-7.5-7.5-7.5c-4.142,0-7.5,3.357-7.5,7.5v43.359
			c0,9.972,8.113,18.085,18.085,18.085h239.619c0.148,0.004,0.293,0.021,0.441,0.021s0.293-0.017,0.441-0.021h117.482
			c9.972,0,18.085-8.113,18.085-18.085v-44.268c36.458-8.678,63.662-41.498,63.662-80.575
			C484.91,323.375,447.748,286.213,402.071,286.213z M289.966,295.157L289.966,295.157c20.064,0,36.57,15.53,38.13,35.2
			l-38.452,37.388c-4.025,3.914-5.288,9.815-3.218,15.034l8.296,20.907l-52.842,38.589l47.192-109.844
			c2.677-6.229,0.325-13.466-5.469-16.83c-4.122-2.395-7.351-8.37-7.351-13.601v-6.843H289.966z M274.757,327.752l-6.626,15.421
			c-28.465,10.966-59.455,10.966-87.92,0l-6.626-15.422c8.016-5.361,13.505-15.715,13.505-25.752v-10.777l3.83,3.075
			c5.553,4.46,12.535,6.916,19.659,6.916h27.181c7.124,0,14.106-2.456,19.66-6.916l3.831-3.077V302
			C261.251,312.037,266.739,322.39,274.757,327.752z M331.532,170.49c0,4.697-2.973,8.702-7.132,10.263l0.009-18.181h7.123V170.49z
			 M116.809,170.49v-7.918h7.123l0.009,18.181C119.783,179.192,116.809,175.187,116.809,170.49z M95.902,147.573
			c7.871-6.717,23.916-13.104,44.619-17.702c24.142-5.362,53.068-8.196,83.65-8.196c30.582,0,59.508,2.834,83.65,8.196
			c20.703,4.598,36.747,10.984,44.619,17.702H95.902z M157.451,248.191c-11.723-9.411-18.456-23.433-18.474-38.469l-0.004-3.683
			c-0.015-12.44-0.033-42.667-0.04-43.467H309.41c-0.004,0.376-0.023,28.39-0.042,39.151c-0.034,20.121-9.05,38.888-24.738,51.486
			l-20.632,16.569c-0.009,0.007-0.018,0.014-0.026,0.021l-15.943,12.803c-2.9,2.329-6.547,3.611-10.268,3.611H210.58
			c-3.721,0-7.367-1.282-10.268-3.612L157.451,248.191z M153.62,403.686l8.295-20.906c2.071-5.22,0.808-11.123-3.218-15.035
			l-38.452-37.388c1.56-19.67,18.066-35.2,38.131-35.2h13.715V302c0,5.231-3.229,11.206-7.348,13.6
			c-5.797,3.365-8.149,10.602-5.472,16.831l47.193,109.844L153.62,403.686z M188.099,361.535
			c11.843,3.245,23.957,4.871,36.072,4.871s24.229-1.626,36.072-4.871l-36.072,83.959L188.099,361.535z M231.67,496.982
			L231.67,496.982v-28.679l72.618-53.029c5.096-3.723,7.031-10.421,4.704-16.289l-8.341-21.022l19.171-18.64
			c-0.376,3.194-0.591,6.437-0.591,9.73c0,20.144,7.234,38.626,19.232,53.001l-11.383,11.383l-0.49-0.49
			c-2.745-2.745-6.393-4.257-10.275-4.257c-3.881,0-7.53,1.512-10.274,4.256l-42.665,42.665c-2.744,2.744-4.255,6.393-4.255,10.274
			c0,3.882,1.512,7.531,4.256,10.274l0.823,0.823H231.67z M285.239,496.808l-10.924-10.924l42.001-42.001l10.924,10.923
			L285.239,496.808z M350.165,435.985v60.997h-43.887l31.899-31.9c2.745-2.744,4.256-6.393,4.256-10.275
			c0-3.881-1.512-7.53-4.256-10.274l-0.49-0.49l11.382-11.383c0.466,0.389,0.945,0.764,1.42,1.143
			C350.28,434.494,350.165,435.226,350.165,435.985z M406.248,493.895c0,1.701-1.384,3.086-3.086,3.086h-37.998v-53.795
			c11.121,5.559,23.65,8.706,36.906,8.706c1.401,0,2.793-0.037,4.178-0.106V493.895z M402.071,436.893
			c-37.407,0-67.84-30.433-67.84-67.841c0-11.583,2.924-22.495,8.064-32.044c0.008-0.015,0.016-0.031,0.024-0.046
			c11.466-21.264,33.947-35.749,59.752-35.749c37.407,0,67.84,30.433,67.84,67.84C469.911,406.46,439.478,436.893,402.071,436.893z"
			/>
	</g>
</g>
<g>
	<g>
		<path d="M402.071,313.022c-30.896,0-56.031,25.136-56.031,56.031c0,30.896,25.136,56.032,56.031,56.032
			s56.031-25.137,56.031-56.033C458.102,338.157,432.966,313.022,402.071,313.022z M402.071,410.085
			c-22.625,0-41.032-18.407-41.032-41.032s18.407-41.031,41.032-41.031s41.032,18.406,41.032,41.031
			C443.103,391.677,424.696,410.085,402.071,410.085z"/>
	</g>
</g>
<g>
</g>
<g>
</g>
<g>
</g>
<g>
</g>
<g>
</g>
<g>
</g>
<g>
</g>
<g>
</g>
<g>
</g>
<g>
</g>
<g>
</g>
<g>
</g>
<g>
</g>
<g>
</g>
<g>
</g>
</svg>
