<svg id="Capa_1" enable-background="new 0 0 512 512" height="512" viewBox="0 0 512 512" width="512" xmlns="http://www.w3.org/2000/svg"><g><path d="m489.5 0c-9.778 0-18.114 6.271-21.21 15h-424.58c-3.096-8.729-11.432-15-21.21-15-12.407 0-22.5 10.093-22.5 22.5v30c0 12.407 10.093 22.5 22.5 22.5 9.778 0 18.114-6.271 21.21-15h42.79v444.5c0 4.142 3.358 7.5 7.5 7.5h324c4.142 0 7.5-3.358 7.5-7.5v-444.5h42.79c3.096 8.729 11.432 15 21.21 15 12.407 0 22.5-10.093 22.5-22.5v-30c0-12.407-10.093-22.5-22.5-22.5zm-233.5 326.55c-35.565 0-64.5-28.935-64.5-64.5s28.935-64.5 64.5-64.5 64.5 28.935 64.5 64.5-28.935 64.5-64.5 64.5zm-76.153-87.295-78.347-15.584v-55.834l84.539 56.487c-2.551 4.711-4.627 9.711-6.192 14.931zm-78.347-.29 75.409 15c-.27 2.659-.409 5.356-.409 8.085s.139 5.426.409 8.085l-75.409 15zm309 46.17-75.409-15c.27-2.659.409-5.356.409-8.085s-.139-5.426-.409-8.085l75.409-15zm-78.347-.29 78.347 15.584v55.834l-84.539-56.487c2.55-4.711 4.627-9.711 6.192-14.931zm78.347-61.174-78.347 15.584c-1.565-5.22-3.642-10.221-6.192-14.932l84.539-56.487zm-92.896-11.804c-3.413-4.182-7.24-8.009-11.422-11.422l62.071-92.896h42.247v42.247zm-23.878-19.778c-4.711-2.551-9.711-4.627-14.931-6.192l15.584-78.347h55.834zm-29.641-9.131c-2.659-.27-5.356-.409-8.085-.409s-5.426.139-8.085.409l-14.999-75.409h46.17zm-46.464-75.408 15.584 78.347c-5.22 1.565-10.22 3.642-14.931 6.192l-56.487-84.539zm-73.874 0 62.07 92.896c-4.181 3.412-8.009 7.24-11.422 11.422l-92.895-62.072v-42.246zm-42.247 192.879 78.347-15.584c1.565 5.22 3.642 10.221 6.192 14.932l-84.539 56.486zm49.333 119.015c-3.444-2.302-8.102-1.375-10.403 2.069l-38.93 58.263v-105.472l92.896-62.071c3.413 4.181 7.24 8.009 11.421 11.421l-48.72 72.915c-2.301 3.444-1.375 8.102 2.069 10.403 1.28.855 2.728 1.265 4.16 1.265 2.421 0 4.797-1.17 6.243-3.334l48.705-72.893c4.711 2.551 9.711 4.627 14.931 6.192l-31.586 158.798h-93.587l44.87-67.153c2.301-3.444 1.374-8.101-2.069-10.403zm97.082-78.303c2.659.27 5.356.409 8.085.409 2.743 0 5.454-.14 8.126-.412l31.003 155.862h-78.216zm30.919-2.949c5.206-1.564 10.193-3.637 14.892-6.181l110.243 164.989h-93.546zm27.349-14.538c4.181-3.413 8.009-7.24 11.421-11.421l92.896 62.071v105.472zm104.317-231.104h-309v-62.55h15v22.5c0 4.142 3.358 7.5 7.5 7.5h68c4.142 0 7.5-3.358 7.5-7.5v-22.5h15v22.5c0 4.142 3.358 7.5 7.5 7.5h68c4.142 0 7.5-3.358 7.5-7.5v-22.5h15v22.5c0 4.142 3.358 7.5 7.5 7.5h68c4.142 0 7.5-3.358 7.5-7.5v-22.5h15zm-279-62.55h53v15h-53zm98 0h53v15h-53zm98 0h53v15h-53zm-297.5 22.5c0 4.136-3.364 7.5-7.5 7.5s-7.5-3.364-7.5-7.5v-30c0-4.136 3.364-7.5 7.5-7.5s7.5 3.364 7.5 7.5zm15-7.5v-15h41.5v15zm380.5-15h41.5v15h-41.5zm71.5 22.5c0 4.136-3.364 7.5-7.5 7.5s-7.5-3.364-7.5-7.5v-30c0-4.136 3.364-7.5 7.5-7.5s7.5 3.364 7.5 7.5z"/></g></svg>