<?xml version="1.0" encoding="iso-8859-1"?>
<!-- Generator: Adobe Illustrator 19.0.0, SVG Export Plug-In . SVG Version: 6.00 Build 0)  -->
<svg version="1.1" id="Capa_1" xmlns="http://www.w3.org/2000/svg" xmlns:xlink="http://www.w3.org/1999/xlink" x="0px" y="0px"
	 viewBox="0 0 456.566 456.566" style="enable-background:new 0 0 456.566 456.566;" xml:space="preserve">
<g>
	<g>
		<path d="M423.503,121.912c3.248-11.015,4.944-22.429,5.04-33.912c-0.057-48.577-39.423-87.943-88-88
			c-18.358,0.001-36.25,5.784-51.136,16.528C170.252-17.214,46.305,52.026,12.563,171.181
			c-33.742,119.154,35.498,243.102,154.653,276.844c119.154,33.742,243.102-35.498,276.844-154.653
			C460.372,235.766,452.971,174.029,423.503,121.912z M436.279,224h-76.296c23.156-23.866,42.142-51.45,56.168-81.6
			C428.343,167.947,435.192,195.714,436.279,224z M340.543,16c39.765,0,72,32.235,72,72c0,56.976-54.488,115.56-72,132.92
			c-17.528-17.344-72-75.856-72-132.92C268.543,48.235,300.778,16,340.543,16z M236.543,24.296
			c12.998,0.462,25.924,2.142,38.608,5.016C260.609,45.401,252.553,66.313,252.543,88c0.092,10.82,1.617,21.581,4.536,32h-20.536
			V24.296z M236.543,136h25.768c14.007,32.706,33.939,62.54,58.792,88h-84.56V136z M236.543,240h95.896
			c-0.431,29.69-4.351,59.226-11.68,88h-61.352c-2.913-11.202-11.662-19.951-22.864-22.864V240z M220.543,24.696V120h-79.248
			C158.703,66.696,187.935,29.92,220.543,24.696z M125.743,262.536c10.658-3.219,18.868-11.759,21.664-22.536h73.136v65.136
			c-11.202,2.913-19.951,11.662-22.864,22.864h-61.136c-5.615-21.455-9.238-43.383-10.824-65.504L125.743,262.536z M116.543,248
			c-8.837,0-16-7.163-16-16s7.163-16,16-16s16,7.163,16,16S125.379,248,116.543,248z M147.407,224
			c-2.812-10.767-11.031-19.292-21.688-22.496c1.586-22.121,5.209-44.049,10.824-65.504h84v88H147.407z M175.503,30.88
			c-21.36,19.52-39.168,50.584-51.04,89.12H53.407C81.54,76.08,125.098,44.286,175.503,30.88z M44.111,136h75.888
			c-5.284,21.263-8.715,42.944-10.256,64.8c-11.744,2.596-21.04,11.559-24.064,23.2H20.743C21.89,193.294,29.873,163.23,44.111,136z
			 M20.743,240h64.936c3.011,11.657,12.31,20.637,24.064,23.24c1.543,21.842,4.975,43.51,10.256,64.76H44.111
			C29.873,300.77,21.89,270.706,20.743,240z M53.407,344h71.056c11.872,38.536,29.688,69.6,51.04,89.12
			C125.098,419.714,81.54,387.92,53.407,344z M220.543,439.304c-32.608-5.224-61.84-42-79.248-95.304h56.384
			c2.913,11.202,11.662,19.951,22.864,22.864V439.304z M228.543,352c-8.837,0-16-7.163-16-16s7.163-16,16-16s16,7.163,16,16
			S237.379,352,228.543,352z M236.543,439.32v-72.456c11.202-2.913,19.951-11.662,22.864-22.864h56.704
			C298.943,397.448,269.943,434.216,236.543,439.32z M282.455,432.872C303.743,413.32,321.287,382.4,332.927,344h70.752
			C375.709,387.649,332.497,419.329,282.455,432.872z M412.975,328h-75.632c6.977-28.826,10.699-58.344,11.096-88h87.904
			C435.196,270.706,427.213,300.77,412.975,328z"/>
	</g>
</g>
<g>
	<g>
		<path d="M340.543,32c-30.928,0-56,25.072-56,56c0.04,30.911,25.089,55.96,56,56c30.928,0,56-25.072,56-56
			C396.543,57.072,371.471,32,340.543,32z M340.543,128c-22.091,0-40-17.909-40-40c0.026-22.08,17.92-39.974,40-40
			c22.091,0,40,17.909,40,40S362.634,128,340.543,128z"/>
	</g>
</g>
<g>
	<g>
		<rect x="332.543" y="160" width="16" height="16"/>
	</g>
</g>
<g>
</g>
<g>
</g>
<g>
</g>
<g>
</g>
<g>
</g>
<g>
</g>
<g>
</g>
<g>
</g>
<g>
</g>
<g>
</g>
<g>
</g>
<g>
</g>
<g>
</g>
<g>
</g>
<g>
</g>
</svg>
