<?xml version="1.0" encoding="iso-8859-1"?>
<!-- Generator: Adobe Illustrator 19.0.0, SVG Export Plug-In . SVG Version: 6.00 Build 0)  -->
<svg version="1.1" id="Layer_1" xmlns="http://www.w3.org/2000/svg" xmlns:xlink="http://www.w3.org/1999/xlink" x="0px" y="0px"
	 viewBox="0 0 512 512" style="enable-background:new 0 0 512 512;" xml:space="preserve">
<g>
	<g>
		<g>
			<rect x="472" y="244.69" width="15" height="15.186"/>
			<polygon points="487,276.237 472,276.237 472,370.723 454.019,370.723 454.019,385.723 487,385.723 			"/>
			<polygon points="81.939,370.723 40,370.723 40,313.035 25,313.035 25,385.723 81.939,385.723 			"/>
			<path d="M0,45.236v81.057v284.43h94.644l56.041,56.041l56.041-56.041H322.14l33.438,33.438
				c6.339,6.339,14.699,9.916,23.542,10.071c0.201,0.004,0.401,0.006,0.603,0.006c8.715-0.001,16.841-3.338,22.939-9.436
				c7.108-7.109,10.45-17.009,9.169-27.16c-0.298-2.359-0.851-4.679-1.637-6.919H512v-284.43V45.236H0z M202.756,393.478
				l-52.072,52.073l-36.507-36.508l103.14-103.141l36.507,36.507L202.756,393.478z M221.725,395.723l42.706-42.706l42.706,42.706
				H221.725z M392.052,434.195c-3.334,3.336-7.837,5.156-12.67,5.039c-4.935-0.087-9.623-2.104-13.198-5.681L173.446,240.817
				l-4.204,1.152c-1.019,0.28-2.043,0.524-3.07,0.733c-11.299,2.298-22.979,0.343-32.816-5.273c-3.577-2.042-6.91-4.569-9.893-7.551
				c-7.243-7.242-11.756-16.409-13.254-26.078c-0.681-4.395-0.739-8.893-0.146-13.362l29.492,29.493l31.882-8.645l8.646-31.883
				l-29.493-29.492c0.65-0.086,1.301-0.143,1.952-0.202c1.139-0.103,2.279-0.179,3.417-0.198c12.519-0.214,24.853,4.582,34.071,13.8
				c0.873,0.873,1.703,1.78,2.498,2.712c10.672,12.525,14.117,30.069,8.77,45.782c-0.92,1.926-6.004,12.171-13.421,19.587
				L198.484,242c4.819-4.819,8.748-10.412,11.577-15.022l61.344,61.344c0.001,0.001,0.002,0.002,0.003,0.003l119.897,119.897
				c0.068,0.075,0.137,0.149,0.209,0.223l0.118,0.122c2.952,3.047,4.793,6.823,5.314,10.953
				C397.643,425.039,395.859,430.389,392.052,434.195z M497,395.723h-96.98L287.317,283.02l87.342-87.344l11.15,11.15l34.939-34.939
				l-32.908-32.909l-34.939,34.939l11.152,11.152c-28.333,28.344-72.301,72.323-87.338,87.349l-59.955-59.955
				c5.553-21.158-0.527-44.163-16.122-59.759c-0.702-0.702-1.422-1.377-2.151-2.04c-1.569-1.428-3.194-2.772-4.876-4.016
				c-17.241-12.756-40.014-15.808-60.311-7.537l-10.46,4.262l40.492,40.491l-4.121,15.195l-15.194,4.12l-40.493-40.492l-4.262,10.46
				c-0.295,0.725-0.576,1.453-0.843,2.184c-8.263,22.656-2.719,47.998,14.437,65.154c0.918,0.918,1.86,1.802,2.826,2.654
				c0.87,0.767,1.762,1.503,2.669,2.216c0.266,0.209,0.535,0.415,0.804,0.619c1.347,1.024,2.728,1.993,4.146,2.898
				c0.367,0.234,0.738,0.459,1.109,0.685c0.183,0.112,0.364,0.228,0.549,0.338c0.123,0.073,0.248,0.141,0.372,0.214
				c0.664,0.388,1.334,0.762,2.011,1.125c12.577,6.747,27.276,9.053,41.532,6.226l37.837,37.837L106.284,395.723H15v-269.43h482
				V395.723z M374.114,173.917l13.727-13.727l11.695,11.696l-13.727,13.727L374.114,173.917z M497,111.293H15V60.236h482V111.293z"
				/>
			<path d="M45.917,106.26c10.998,0,19.945-8.947,19.945-19.945c0-10.997-8.947-19.944-19.945-19.944s-19.945,8.947-19.945,19.944
				C25.972,97.313,34.919,106.26,45.917,106.26z M45.917,81.372c2.727,0,4.945,2.218,4.945,4.944c0,2.726-2.218,4.945-4.945,4.945
				s-4.945-2.219-4.945-4.945C40.972,83.589,43.19,81.372,45.917,81.372z"/>
			<path d="M103.418,106.26c10.998,0,19.945-8.947,19.945-19.945c0.001-10.997-8.947-19.944-19.945-19.944
				c-10.998,0-19.945,8.947-19.945,19.944C83.473,97.313,92.42,106.26,103.418,106.26z M103.418,81.372
				c2.727,0,4.945,2.218,4.945,4.944c0.001,2.726-2.217,4.945-4.945,4.945c-2.727,0-4.945-2.219-4.945-4.945
				C98.473,83.589,100.691,81.372,103.418,81.372z"/>
			<path d="M160.919,106.26c10.998,0,19.945-8.947,19.945-19.945c0.001-10.997-8.947-19.944-19.945-19.944
				s-19.945,8.947-19.945,19.944C140.974,97.313,149.921,106.26,160.919,106.26z M160.919,81.372c2.727,0,4.945,2.218,4.945,4.944
				c0.001,2.726-2.218,4.945-4.945,4.945s-4.945-2.219-4.945-4.945C155.974,83.589,158.192,81.372,160.919,81.372z"/>
			<path d="M326.852,106.26h128.596c10.998,0,19.945-8.947,19.945-19.945c0-3.032-0.665-5.947-1.976-8.66
				c-3.307-6.854-10.36-11.284-17.97-11.284H326.852c-10.998,0-19.945,8.947-19.945,19.944
				C306.907,97.313,315.854,106.26,326.852,106.26z M326.852,81.372h128.596c1.917,0,3.626,1.073,4.461,2.805
				c0.321,0.665,0.484,1.385,0.484,2.14c0,2.725-2.219,4.944-4.946,4.944H326.852c-2.727,0-4.945-2.219-4.945-4.945
				C321.907,83.589,324.126,81.372,326.852,81.372z"/>
			<rect x="190.508" y="366.809" transform="matrix(-0.707 -0.7072 0.7072 -0.707 73.895 777.5145)" width="15" height="13.283"/>
			<polygon points="150.684,410.195 145.72,405.23 135.114,415.838 150.684,431.408 184.876,397.217 174.27,386.609 			"/>
		</g>
	</g>
</g>
<g>
</g>
<g>
</g>
<g>
</g>
<g>
</g>
<g>
</g>
<g>
</g>
<g>
</g>
<g>
</g>
<g>
</g>
<g>
</g>
<g>
</g>
<g>
</g>
<g>
</g>
<g>
</g>
<g>
</g>
</svg>
