<svg id="Capa_1" enable-background="new 0 0 512 512" height="512" viewBox="0 0 512 512" width="512" xmlns="http://www.w3.org/2000/svg"><g><path d="m186.994 421.25c59.767 0 108.39-48.619 108.39-108.38v-23.83h21.59v29.274c0 8.429 5.048 15.918 12.861 19.081 2.523 1.022 5.153 1.518 7.757 1.518 5.454 0 10.787-2.181 14.756-6.28l42.203-43.592h19.783c35.245 0 63.92-28.674 63.92-63.92v-161.201c0-35.246-28.675-63.92-63.92-63.92h-161.2c-35.246 0-63.92 28.674-63.92 63.92v24.618c-9.045-2.36-18.364-3.568-27.83-3.568h-20.93c-44.371 0-84.196 26.41-101.458 67.28-2.88 6.813-2.165 14.553 1.912 20.703.997 1.504 2.162 2.857 3.459 4.045v17.197c-2.861 1.064-5.492 2.718-7.715 4.941-4.067 4.067-6.307 9.474-6.307 15.223 0 9.224 5.847 17.088 14.022 20.143v12.861c-2.857 1.062-5.489 2.713-7.717 4.933-2.225 2.225-3.88 4.859-4.944 7.723h-10.248v-16.427c0-4.142-3.358-7.5-7.5-7.5s-7.5 3.358-7.5 7.5l-.004 69.278c0 59.761 48.624 108.38 108.39 108.38h11.572v22.731h-35.633c-14.815 0-27.272 10.266-30.648 24.055h-15.594c-12.121 0-21.981 9.861-21.981 21.982s9.861 21.981 21.981 21.981h212.759c12.121 0 21.981-9.861 21.981-21.981 0-12.121-9.86-21.982-21.981-21.982h-15.594c-3.376-13.79-15.832-24.055-30.648-24.055h-35.633v-22.731zm77.288 68.769c0 3.85-3.132 6.981-6.981 6.981h-212.76c-3.85 0-6.981-3.132-6.981-6.981s3.132-6.982 6.981-6.982h212.759c3.85 0 6.982 3.132 6.982 6.982zm-38.466-21.982h-149.79c2.74-5.37 8.326-9.055 14.757-9.055h120.276c6.431-.001 12.017 3.685 14.757 9.055zm-84.4-24.056v-22.729h19.009v22.729zm62.798-380.061c0-26.975 21.946-48.92 48.92-48.92h161.2c26.975 0 48.92 21.945 48.92 48.92v161.2c0 26.975-21.945 48.92-48.92 48.92h-22.961c-2.031 0-3.976.824-5.389 2.283l-44.414 45.875c-2.428 2.509-5.288 1.623-6.107 1.292-1.049-.424-3.489-1.779-3.489-5.176v-36.774c0-4.142-3.357-7.5-7.5-7.5h-71.34c-26.975 0-48.92-21.945-48.92-48.92zm-156.955 145.823c1.234-1.234 2.874-1.913 4.617-1.913h12.48c4.142 0 7.5-3.358 7.5-7.5s-3.358-7.5-7.5-7.5h-4.988v-10.11h129.846v10.11h-94.858c-4.142 0-7.5 3.358-7.5 7.5s3.358 7.5 7.5 7.5h94.858v13.05h-137.338c-3.601 0-6.53-2.925-6.53-6.52-.001-1.743.679-3.383 1.913-4.617zm142.879 26.137c.592 3.477 1.465 6.857 2.597 10.12h-133.367v-10.12zm-142.891 27.034c1.239-1.234 2.882-1.914 4.627-1.914h148.39c3.316 4.871 7.291 9.256 11.79 13.04h-160.18c-3.601 0-6.53-2.925-6.53-6.52 0-1.743.68-3.383 1.903-4.606zm195.227 26.126v10.119h-183.106v-10.119zm-189.068 28.176c1.289-1.942 3.367-3.057 5.703-3.057h183.625c2.336 0 4.414 1.114 5.703 3.057 1.31 1.976 1.529 4.371.6 6.569-14.915 35.305-49.319 58.117-87.648 58.117h-20.935c-38.329 0-72.733-22.812-87.648-58.117-.929-2.199-.711-4.593.6-6.569zm-.592-159.128c14.911-35.305 49.312-58.118 87.641-58.118h20.93c9.51 0 18.846 1.407 27.83 4.156v63.594h-130.1c-2.337 0-4.417-1.114-5.704-3.056-1.311-1.976-1.529-4.372-.597-6.576zm-31.36 154.782v-37.85h10.266c2.18 5.833 6.812 10.463 12.647 12.644v17.214c-1.299 1.189-2.465 2.543-3.463 4.049-4.077 6.148-4.794 13.885-1.917 20.696 17.266 40.871 57.094 67.279 101.465 67.279h20.935c44.372 0 84.199-26.409 101.466-67.28 2.877-6.811 2.16-14.547-1.917-20.696-.998-1.505-2.165-2.859-3.463-4.048v-15.838h22.91v23.83c0 51.49-41.895 93.38-93.39 93.38h-72.15c-51.494 0-93.389-41.89-93.389-93.38z"/><path d="m501.661 321.729c-3.761-6.049-9.926-10.309-16.913-11.688l-29.03-5.729c-13.253-2.618-26.388 5.552-29.904 18.594l-.71 2.633c-3.517 13.043 3.733 26.707 16.505 31.106l27.976 9.64c2.719.937 5.557 1.4 8.39 1.4 4.184 0 8.355-1.011 12.107-3.002 6.291-3.338 10.963-9.197 12.816-16.073l1.765-6.544c1.853-6.876.76-14.288-3.002-20.337zm-11.482 16.434-1.765 6.544c-.788 2.92-2.692 5.31-5.365 6.728-2.671 1.417-5.719 1.657-8.579.671l-27.976-9.64c-5.346-1.842-8.381-7.561-6.909-13.021l.71-2.633c1.472-5.459 6.974-8.875 12.518-7.784l29.03 5.729c2.968.586 5.482 2.323 7.079 4.892 1.598 2.57 2.045 5.593 1.257 8.514z"/><path d="m446.587 393.895-22.276-19.476c-10.17-8.892-25.629-8.385-35.195 1.151l-1.932 1.926c-9.566 9.537-10.119 24.995-1.26 35.192l19.408 22.336c4.672 5.376 11.433 8.606 18.551 8.861.305.011.608.016.913.016 6.798 0 13.396-2.714 18.224-7.528l4.8-4.785c5.044-5.028 7.804-11.994 7.571-19.112-.233-7.121-3.442-13.893-8.804-18.581zm-9.358 27.069-4.8 4.785c-2.143 2.135-4.99 3.255-8.01 3.144-3.023-.108-5.781-1.425-7.766-3.709l-19.408-22.335c-3.708-4.268-3.477-10.739.527-14.73l1.932-1.926c4.006-3.992 10.478-4.203 14.732-.481l22.276 19.476c2.277 1.992 3.586 4.753 3.685 7.777.1 3.022-1.025 5.863-3.168 7.999z"/><path d="m368.169 430.036c-4.361-12.786-18.005-20.076-31.056-16.601l-2.636.702c-13.054 3.477-21.262 16.587-18.687 29.847l5.64 29.048c1.357 6.992 5.599 13.17 11.636 16.95 4.132 2.587 8.906 3.926 13.715 3.926 2.218 0 4.441-.285 6.613-.863l6.551-1.744c6.882-1.833 12.755-6.487 16.112-12.768 3.357-6.282 3.964-13.75 1.665-20.491zm-5.34 41.425c-1.427 2.668-3.821 4.566-6.744 5.344l-6.55 1.744c-2.921.779-5.943.324-8.509-1.282-2.564-1.605-4.294-4.125-4.871-7.095l-5.64-29.048c-1.078-5.55 2.357-11.038 7.821-12.493l2.636-.702c.921-.245 1.847-.362 2.762-.362 4.515 0 8.72 2.86 10.237 7.311l9.554 28.006c.977 2.863.73 5.909-.696 8.577z"/><path d="m389.19 139.402h-106.846c-4.143 0-7.5 3.358-7.5 7.5 0 33.593 27.33 60.923 60.923 60.923s60.923-27.33 60.923-60.923c0-4.142-3.357-7.5-7.5-7.5zm-53.423 53.423c-22.769 0-41.721-16.655-45.311-38.423h90.621c-3.589 21.767-22.541 38.423-45.31 38.423z"/><path d="m333.736 262.66c16.787 0 33.325-4.341 47.826-12.554 3.604-2.041 4.871-6.618 2.83-10.222-2.042-3.604-6.618-4.871-10.223-2.83-12.251 6.938-26.232 10.606-40.434 10.606-45.392 0-82.32-36.924-82.32-82.31v-114.08h164.63v114.08c0 20.053-7.29 39.369-20.527 54.392-2.738 3.108-2.439 7.847.669 10.585 3.106 2.739 7.847 2.439 10.585-.668 15.653-17.764 24.273-40.603 24.273-64.309v-121.58c0-4.142-3.357-7.5-7.5-7.5h-179.63c-4.142 0-7.5 3.358-7.5 7.5v121.58c.001 53.657 43.659 97.31 97.321 97.31z"/><path d="m293.355 99.3c11.009 0 19.966 8.957 19.966 19.965 0 4.142 3.357 7.5 7.5 7.5s7.5-3.358 7.5-7.5c0-19.28-15.686-34.965-34.966-34.965-19.279 0-34.965 15.686-34.965 34.965 0 4.142 3.357 7.5 7.5 7.5s7.5-3.358 7.5-7.5c0-11.008 8.956-19.965 19.965-19.965z"/><path d="m354.148 119.266c0-11.009 8.957-19.965 19.966-19.965s19.965 8.957 19.965 19.965c0 4.142 3.357 7.5 7.5 7.5s7.5-3.358 7.5-7.5c0-19.28-15.686-34.965-34.965-34.965-19.28 0-34.966 15.686-34.966 34.965 0 4.142 3.357 7.5 7.5 7.5s7.5-3.358 7.5-7.5z"/></g></svg>