<?xml version="1.0" encoding="iso-8859-1"?>
<!-- Generator: Adobe Illustrator 19.0.0, SVG Export Plug-In . SVG Version: 6.00 Build 0)  -->
<svg version="1.1" id="Capa_1" xmlns="http://www.w3.org/2000/svg" xmlns:xlink="http://www.w3.org/1999/xlink" x="0px" y="0px"
	 viewBox="0 0 512 512" style="enable-background:new 0 0 512 512;" xml:space="preserve">
<g>
	<g>
		<path d="M380.615,389.661c-4.104-0.575-7.892,2.291-8.463,6.393c-3.869,27.757-17.665,53.278-38.847,71.862
			C311.928,486.671,284.474,497,256,497c-21.246,0-42.06-5.744-60.193-16.609c-3.553-2.129-8.159-0.974-10.289,2.578
			c-2.129,3.553-0.975,8.159,2.579,10.289C208.559,505.519,232.04,512,256,512c32.115,0,63.083-11.651,87.197-32.808
			c23.887-20.957,39.446-49.747,43.811-81.068C387.58,394.021,384.718,390.232,380.615,389.661z"/>
	</g>
</g>
<g>
	<g>
		<path d="M170.631,460.131c-20.584-21.84-31.921-50.402-31.921-80.421v-34.017c0-17.445-6.494-34.132-18.285-46.989
			c-9.247-10.083-14.34-23.17-14.34-36.851v-51.345c0-1,0.542-1.625,0.866-1.91c0.375-0.329,1.002-0.698,1.88-0.584
			c18.469,2.405,35.561,11.396,48.126,25.317c2.079,2.304,5.364,3.087,8.259,1.975c2.896-1.114,4.808-3.897,4.808-7v-69.218
			c0-4.142-3.358-7.5-7.5-7.5c-4.142,0-7.5,3.358-7.5,7.5v52.209c-12.881-9.745-28.126-16.057-44.257-18.157
			c-4.955-0.646-9.951,0.882-13.715,4.188c-3.792,3.331-5.968,8.135-5.968,13.18v51.345c0,17.444,6.494,34.132,18.285,46.989
			c9.247,10.083,14.34,23.169,14.34,36.85v34.017c0,33.859,12.787,66.074,36.006,90.71c1.476,1.565,3.465,2.356,5.459,2.356
			c1.845,0,3.694-0.677,5.143-2.042C173.331,467.892,173.472,463.146,170.631,460.131z"/>
	</g>
</g>
<g>
	<g>
		<path d="M414.948,197.329c-3.765-3.306-8.764-4.834-13.715-4.188c-16.131,2.1-31.376,8.412-44.257,18.157V97.846
			c0-21.316-17.342-38.659-38.659-38.659c-8.904,0-17.115,3.026-23.658,8.104V38.658C294.659,17.342,277.316,0,256,0
			c-21.316,0-38.658,17.342-38.658,38.658v28.633c-6.543-5.078-14.754-8.104-23.659-8.104c-21.316,0-38.659,17.342-38.659,38.659
			v27.065c0,4.142,3.358,7.5,7.5,7.5c4.142,0,7.5-3.358,7.5-7.5V97.846c0-13.045,10.613-23.659,23.659-23.659
			c13.046,0,23.659,10.613,23.659,23.659V235.26c0,4.142,3.358,7.5,7.5,7.5c4.142,0,7.5-3.358,7.5-7.5V38.658
			C232.342,25.613,242.955,15,256,15c13.045,0,23.659,10.613,23.659,23.658V235.26c0,4.142,3.358,7.5,7.5,7.5
			c4.142,0,7.5-3.358,7.5-7.5V97.846c0-13.045,10.613-23.659,23.658-23.659s23.659,10.613,23.659,23.659v130.46
			c0,3.104,1.912,5.886,4.808,7c2.894,1.116,6.18,0.33,8.259-1.975c12.565-13.921,29.657-22.912,48.125-25.317
			c0.874-0.11,1.506,0.255,1.88,0.584c0.324,0.284,0.866,0.91,0.866,1.91v51.345c0,14.51-5.65,28.151-15.911,38.411
			c-10.778,10.778-16.714,25.109-16.714,40.352v22.295c0,4.142,3.358,7.5,7.5,7.5c4.142,0,7.5-3.358,7.5-7.5v-22.295
			c0-11.236,4.375-21.8,12.321-29.745c13.093-13.093,20.304-30.501,20.304-49.018v-51.345
			C420.915,205.463,418.74,200.66,414.948,197.329z"/>
	</g>
</g>
<g>
	<g>
		<path d="M315.327,386.677c-13.304-19.827-35.482-31.664-59.327-31.664c-23.845,0-46.023,11.837-59.327,31.664
			c-1.696,2.527-1.696,5.83,0,8.357c13.298,19.819,35.477,31.651,59.327,31.651s46.028-11.832,59.327-31.651
			C317.023,392.506,317.023,389.204,315.327,386.677z M256,370.013c5.929,0,10.753,4.824,10.753,10.753
			c0,5.929-4.824,10.753-10.753,10.753s-10.753-4.824-10.753-10.753C245.247,374.837,250.071,370.013,256,370.013z M256,411.685
			c-17.099,0-33.112-7.701-43.781-20.83c5.093-6.268,11.411-11.283,18.473-14.831c-0.288,1.538-0.445,3.122-0.445,4.742
			c0,14.2,11.553,25.753,25.753,25.753s25.753-11.553,25.753-25.753c0-1.62-0.157-3.204-0.445-4.742
			c7.062,3.548,13.38,8.562,18.473,14.831C289.112,403.984,273.099,411.685,256,411.685z"/>
	</g>
</g>
<g>
	<g>
		<path d="M256,309.307c-4.142,0-7.5,3.358-7.5,7.5v22.36c0,4.142,3.358,7.5,7.5,7.5c4.142,0,7.5-3.358,7.5-7.5v-22.36
			C263.5,312.665,260.142,309.307,256,309.307z"/>
	</g>
</g>
<g>
	<g>
		<path d="M287.832,326.177c-4.023-0.966-8.077,1.51-9.046,5.538l-2.128,8.843c-0.969,4.027,1.51,8.077,5.538,9.046
			c0.589,0.142,1.179,0.21,1.76,0.21c3.386,0,6.458-2.31,7.286-5.748l2.128-8.843C294.339,331.196,291.86,327.146,287.832,326.177z"
			/>
	</g>
</g>
<g>
	<g>
		<path d="M317.36,340.493c-3.102-2.743-7.842-2.451-10.586,0.652l-6.074,6.871c-2.744,3.103-2.452,7.843,0.652,10.586
			c1.427,1.261,3.199,1.881,4.964,1.881c2.075,0,4.14-0.856,5.622-2.533l6.074-6.871
			C320.756,347.976,320.464,343.236,317.36,340.493z"/>
	</g>
</g>
<g>
	<g>
		<path d="M340.793,362.893c-1.96-3.648-6.507-5.019-10.156-3.059l-9.356,5.024c-3.649,1.959-5.019,6.507-3.059,10.156
			c1.354,2.52,3.94,3.953,6.614,3.953c1.198,0,2.413-0.288,3.542-0.894l9.356-5.024
			C341.383,371.089,342.753,366.542,340.793,362.893z"/>
	</g>
</g>
<g>
	<g>
		<path d="M235.343,340.558l-2.128-8.843c-0.969-4.027-5.021-6.505-9.046-5.538c-4.027,0.969-6.506,5.02-5.538,9.046l2.128,8.843
			c0.826,3.438,3.899,5.748,7.285,5.748c0.581,0,1.171-0.068,1.761-0.21C233.832,348.635,236.311,344.584,235.343,340.558z"/>
	</g>
</g>
<g>
	<g>
		<path d="M211.3,348.016l-6.074-6.871c-2.744-3.103-7.483-3.396-10.586-0.652c-3.103,2.744-3.396,7.483-0.652,10.586l6.074,6.871
			c1.482,1.677,3.547,2.533,5.622,2.533c1.765,0,3.538-0.62,4.964-1.881C213.752,355.858,214.044,351.119,211.3,348.016z"/>
	</g>
</g>
<g>
	<g>
		<path d="M190.719,364.858l-9.356-5.024c-3.648-1.96-8.196-0.591-10.156,3.059c-1.96,3.649-0.59,8.196,3.059,10.156l9.356,5.024
			c1.129,0.606,2.344,0.894,3.542,0.894c2.673,0,5.261-1.433,6.614-3.953C195.738,371.365,194.368,366.817,190.719,364.858z"/>
	</g>
</g>
<g>
	<g>
		<path d="M256,436.743c-4.142,0-7.5,3.358-7.5,7.5v22.36c0,4.142,3.358,7.5,7.5,7.5c4.142,0,7.5-3.358,7.5-7.5v-22.36
			C263.5,440.101,260.142,436.743,256,436.743z"/>
	</g>
</g>
<g>
	<g>
		<path d="M229.805,433.806c-4.027-0.966-8.077,1.509-9.047,5.538l-2.128,8.843c-0.969,4.027,1.51,8.077,5.538,9.046
			c0.59,0.142,1.179,0.21,1.761,0.21c3.386,0,6.458-2.31,7.286-5.748l2.128-8.843C236.312,438.825,233.833,434.775,229.805,433.806z
			"/>
	</g>
</g>
<g>
	<g>
		<path d="M210.647,424.808c-3.102-2.743-7.843-2.451-10.586,0.652l-6.074,6.871c-2.744,3.103-2.452,7.843,0.652,10.586
			c1.427,1.261,3.199,1.881,4.964,1.881c2.075,0,4.14-0.856,5.622-2.533l6.074-6.871
			C214.043,432.291,213.751,427.551,210.647,424.808z"/>
	</g>
</g>
<g>
	<g>
		<path d="M193.778,408.396c-1.96-3.649-6.506-5.019-10.156-3.059l-9.356,5.024c-3.649,1.959-5.019,6.507-3.059,10.156
			c1.354,2.52,3.94,3.953,6.614,3.953c1.198,0,2.413-0.288,3.542-0.894l9.356-5.024
			C194.368,416.593,195.738,412.045,193.778,408.396z"/>
	</g>
</g>
<g>
	<g>
		<path d="M293.37,448.187l-2.128-8.843c-0.97-4.028-5.023-6.505-9.047-5.538c-4.027,0.969-6.506,5.02-5.538,9.046l2.128,8.843
			c0.827,3.438,3.899,5.748,7.286,5.748c0.581,0,1.171-0.068,1.761-0.21C291.859,456.264,294.338,452.213,293.37,448.187z"/>
	</g>
</g>
<g>
	<g>
		<path d="M318.013,432.331l-6.074-6.871c-2.744-3.104-7.482-3.396-10.586-0.652c-3.104,2.744-3.396,7.483-0.652,10.586l6.074,6.871
			c1.482,1.677,3.547,2.533,5.622,2.533c1.765,0,3.538-0.62,4.964-1.881C320.465,440.173,320.757,435.434,318.013,432.331z"/>
	</g>
</g>
<g>
	<g>
		<path d="M337.734,410.362l-9.356-5.024c-3.649-1.96-8.196-0.591-10.156,3.059c-1.96,3.649-0.59,8.196,3.059,10.156l9.356,5.024
			c1.129,0.606,2.344,0.894,3.542,0.894c2.673,0,5.261-1.433,6.614-3.953C342.753,416.869,341.383,412.322,337.734,410.362z"/>
	</g>
</g>
<g>
	<g>
		<path d="M170.055,253.482c-8.637-8.638-30.801-8.779-37.384-8.617c-3.997,0.098-7.214,3.315-7.313,7.313
			c-0.163,6.586-0.021,28.746,8.616,37.384c4.974,4.973,11.507,7.46,18.04,7.46c6.533,0,13.067-2.487,18.041-7.46
			C180.002,279.614,180.002,263.429,170.055,253.482z M159.448,278.955c-4.098,4.098-10.768,4.1-14.867,0
			c-1.942-1.942-3.599-10.084-4.098-18.97c8.877,0.495,17.014,2.153,18.964,4.103C163.547,268.186,163.547,274.855,159.448,278.955z
			"/>
	</g>
</g>
<g>
	<g>
		<path d="M386.641,252.178c-0.098-3.997-3.315-7.214-7.313-7.313c-6.587-0.161-28.746-0.021-37.383,8.616
			c-9.947,9.947-9.947,26.132,0,36.08c4.974,4.974,11.506,7.46,18.04,7.46s13.067-2.487,18.041-7.46
			C386.662,280.924,386.804,258.764,386.641,252.178z M367.419,278.954c-4.098,4.099-10.768,4.101-14.867,0
			c-4.099-4.099-4.099-10.769,0-14.867c1.942-1.942,10.083-3.599,18.97-4.097C371.027,268.867,369.369,277.004,367.419,278.954z"/>
	</g>
</g>
<g>
	<g>
		<path d="M256,237.253c-10.39,0-18.844,8.454-18.844,18.844c0,10.391,8.454,18.844,18.844,18.844s18.844-8.454,18.844-18.844
			C274.844,245.707,266.39,237.253,256,237.253z M256,259.941c-2.119,0-3.844-1.725-3.844-3.844c0-2.119,1.724-3.844,3.844-3.844
			s3.844,1.725,3.844,3.844C259.844,258.216,258.119,259.941,256,259.941z"/>
	</g>
</g>
<g>
	<g>
		<path d="M256.086,283.402h-0.092c-4.136,0.018-7.472,3.319-7.494,7.46c-0.022,4.142,3.364,7.518,7.506,7.54
			c0.014,0,0.027,0,0.041,0c4.123,0,7.477-3.332,7.499-7.46C263.568,286.8,260.228,283.424,256.086,283.402z"/>
	</g>
</g>
<g>
	<g>
		<path d="M256.086,197.846h-0.092c-0.014,0-0.027,0-0.041,0c-4.123,0-7.431,3.332-7.453,7.46c-0.022,4.142,3.364,7.518,7.506,7.54
			c0.014,0,0.027,0,0.041,0c4.123,0,7.477-3.332,7.499-7.46C263.568,201.244,260.228,197.868,256.086,197.846z"/>
	</g>
</g>
<g>
	<g>
		<path d="M256.046,175.478h-0.092c-4.142,0-7.454,3.358-7.454,7.5c0,4.142,3.404,7.5,7.546,7.5c4.142,0,7.5-3.358,7.5-7.5
			C263.546,178.836,260.188,175.478,256.046,175.478z"/>
	</g>
</g>
<g>
	<g>
		<path d="M256.046,45.264h-0.092c-4.142,0-7.454,3.358-7.454,7.5c0,4.142,3.404,7.5,7.546,7.5c4.142,0,7.5-3.358,7.5-7.5
			C263.546,48.622,260.188,45.264,256.046,45.264z"/>
	</g>
</g>
<g>
	<g>
		<path d="M256.058,84.722c-0.004,0-0.008,0-0.012,0c-4.136,0-7.493,3.351-7.5,7.488l-0.092,59.906
			c-0.006,4.143,3.346,7.506,7.488,7.512c0.004,0,0.008,0,0.012,0c4.137,0,7.494-3.351,7.5-7.488l0.092-59.906
			C263.552,88.091,260.2,84.729,256.058,84.722z"/>
	</g>
</g>
<g>
	<g>
		<path d="M318.27,244.987h-0.092c-4.142,0-7.454,3.358-7.454,7.5c0,4.142,3.404,7.5,7.546,7.5c4.142,0,7.5-3.358,7.5-7.5
			C325.77,248.345,322.412,244.987,318.27,244.987z"/>
	</g>
</g>
<g>
	<g>
		<path d="M318.27,222.618h-0.092c-4.142,0-7.454,3.358-7.454,7.5c0,4.142,3.404,7.5,7.546,7.5c4.142,0,7.5-3.358,7.5-7.5
			C325.77,225.976,322.412,222.618,318.27,222.618z"/>
	</g>
</g>
<g>
	<g>
		<path d="M318.31,92.405h-0.092c-4.162-0.013-7.472,3.318-7.494,7.46c-0.022,4.142,3.364,7.518,7.506,7.54c0.014,0,0.027,0,0.041,0
			c4.123,0,7.477-3.332,7.499-7.46C325.792,95.803,322.452,92.427,318.31,92.405z"/>
	</g>
</g>
<g>
	<g>
		<path d="M318.283,131.864c-0.004,0-0.008,0-0.012,0c-4.137,0-7.494,3.351-7.5,7.488l-0.092,59.905
			c-0.007,4.143,3.345,7.506,7.488,7.512c0.004,0,0.008,0,0.012,0c4.137,0,7.494-3.351,7.5-7.488l0.092-59.905
			C325.777,135.233,322.425,131.871,318.283,131.864z"/>
	</g>
</g>
<g>
	<g>
		<path d="M193.822,244.987h-0.092c-4.142,0-7.454,3.358-7.454,7.5c0,4.142,3.404,7.5,7.546,7.5c4.142,0,7.5-3.358,7.5-7.5
			C201.322,248.345,197.964,244.987,193.822,244.987z"/>
	</g>
</g>
<g>
	<g>
		<path d="M193.822,222.618h-0.092c-4.142,0-7.454,3.358-7.454,7.5c0,4.142,3.404,7.5,7.546,7.5c4.142,0,7.5-3.358,7.5-7.5
			C201.322,225.976,197.964,222.618,193.822,222.618z"/>
	</g>
</g>
<g>
	<g>
		<path d="M193.862,92.405h-0.092c-4.111-0.013-7.472,3.318-7.494,7.46c-0.022,4.142,3.364,7.518,7.506,7.54
			c0.014,0,0.027,0,0.041,0c4.123,0,7.477-3.332,7.499-7.46C201.344,95.803,198.004,92.427,193.862,92.405z"/>
	</g>
</g>
<g>
	<g>
		<path d="M193.834,131.864c-0.004,0-0.008,0-0.012,0c-4.137,0-7.494,3.351-7.5,7.488l-0.092,59.905
			c-0.006,4.143,3.346,7.506,7.488,7.512c0.004,0,0.008,0,0.012,0c4.137,0,7.494-3.351,7.5-7.488l0.092-59.905
			C201.328,135.233,197.976,131.871,193.834,131.864z"/>
	</g>
</g>
<g>
	<g>
		<path d="M344.035,305.623l-16.673-16.673c-2.928-2.929-7.677-2.929-10.606,0c-2.929,2.929-2.929,7.678,0,10.606l16.673,16.673
			c1.464,1.464,3.384,2.197,5.303,2.197s3.839-0.732,5.303-2.197C346.964,313.3,346.964,308.551,344.035,305.623z"/>
	</g>
</g>
<g>
	<g>
		<path d="M195.243,288.95c-2.929-2.929-7.678-2.929-10.606,0l-16.673,16.673c-2.929,2.929-2.929,7.678,0,10.606
			c1.464,1.464,3.384,2.197,5.303,2.197c1.919,0,3.839-0.732,5.303-2.197l16.673-16.673
			C198.172,296.627,198.172,291.878,195.243,288.95z"/>
	</g>
</g>
<g>
	<g>
		<path d="M387.586,222.619h-0.093c-0.014,0-0.027,0-0.041,0c-4.123,0-7.431,3.333-7.453,7.461c-0.021,4.142,3.365,7.518,7.507,7.54
			c0.015-0.001,0.028-0.001,0.041-0.001c4.123,0,7.477-3.332,7.499-7.46C395.067,226.017,391.728,222.641,387.586,222.619z"/>
	</g>
</g>
<g>
	<g>
		<path d="M124.586,222.618h-0.093c-0.014,0-0.027,0-0.041,0c-4.123,0-7.431,3.333-7.453,7.461c-0.021,4.142,3.365,7.518,7.507,7.54
			c0.014,0,0.027,0,0.041,0c4.123,0,7.477-3.332,7.499-7.461C132.067,226.016,128.728,222.64,124.586,222.618z"/>
	</g>
</g>
<g>
	<g>
		<path d="M418.021,118.625c-0.008,0-0.015,0-0.023,0c-4.131,0-7.487,3.343-7.5,7.478l-0.014,4.602
			c-0.011,4.141,3.336,7.509,7.478,7.522c0.008,0,0.015,0,0.023,0c4.131,0,7.487-3.343,7.5-7.478l0.014-4.602
			C425.511,122.005,422.164,118.637,418.021,118.625z"/>
	</g>
</g>
<g>
	<g>
		<path d="M417.933,149.007c-0.008,0-0.015,0-0.023,0c-4.131,0-7.487,3.343-7.5,7.478l-0.014,4.603
			c-0.012,4.142,3.335,7.51,7.478,7.522c0.008,0,0.015,0,0.023,0c4.131,0,7.487-3.343,7.5-7.478l0.014-4.603
			C425.422,152.387,422.075,149.019,417.933,149.007z"/>
	</g>
</g>
<g>
	<g>
		<path d="M435.462,136.168l-4.602-0.014c-0.008,0-0.015,0-0.023,0c-4.131,0-7.487,3.343-7.5,7.478
			c-0.012,4.142,3.335,7.51,7.478,7.522l4.602,0.014c0.008,0,0.015,0,0.023,0c4.131,0,7.487-3.343,7.5-7.478
			C442.952,139.548,439.604,136.18,435.462,136.168z"/>
	</g>
</g>
<g>
	<g>
		<path d="M405.08,136.08l-4.602-0.014c-0.008,0-0.015,0-0.023,0c-4.131,0-7.487,3.343-7.5,7.478
			c-0.012,4.142,3.336,7.51,7.478,7.522l4.602,0.014c0.008,0,0.015,0,0.023,0c4.131,0,7.487-3.343,7.5-7.478
			C412.57,139.46,409.223,136.092,405.08,136.08z"/>
	</g>
</g>
<g>
	<g>
		<path d="M94.126,118.625c-0.008,0-0.015,0-0.023,0c-4.131,0-7.487,3.343-7.5,7.478l-0.014,4.602
			c-0.011,4.141,3.336,7.509,7.478,7.522c0.008,0,0.015,0,0.023,0c4.131,0,7.487-3.343,7.5-7.478l0.014-4.602
			C101.616,122.005,98.269,118.637,94.126,118.625z"/>
	</g>
</g>
<g>
	<g>
		<path d="M94.038,149.006c-0.008,0-0.015,0-0.023,0c-4.131,0-7.487,3.343-7.5,7.478l-0.014,4.603
			c-0.012,4.142,3.335,7.51,7.478,7.522c0.008,0,0.015,0,0.023,0c4.131,0,7.487-3.343,7.5-7.478l0.014-4.603
			C101.528,152.386,98.181,149.018,94.038,149.006z"/>
	</g>
</g>
<g>
	<g>
		<path d="M111.567,136.168l-4.602-0.014c-0.008,0-0.015,0-0.023,0c-4.131,0-7.487,3.343-7.5,7.478
			c-0.011,4.142,3.336,7.51,7.478,7.522l4.602,0.014c0.008,0,0.015,0,0.023,0c4.131,0,7.487-3.343,7.5-7.478
			C119.057,139.548,115.71,136.18,111.567,136.168z"/>
	</g>
</g>
<g>
	<g>
		<path d="M81.185,136.08l-4.602-0.014c-0.008,0-0.015,0-0.023,0c-4.131,0-7.487,3.343-7.5,7.478
			c-0.012,4.142,3.335,7.51,7.478,7.522l4.602,0.014c0.008,0,0.015,0,0.023,0c4.131,0,7.487-3.343,7.5-7.478
			C88.675,139.46,85.327,136.092,81.185,136.08z"/>
	</g>
</g>
<g>
	<g>
		<path d="M132.917,27.721c-0.008,0-0.015,0-0.023,0c-4.131,0-7.487,3.343-7.5,7.478l-0.014,4.602
			c-0.012,4.142,3.336,7.51,7.478,7.522c0.008,0,0.015,0,0.023,0c4.131,0,7.487-3.343,7.5-7.478l0.014-4.602
			C140.407,31.101,137.06,27.733,132.917,27.721z"/>
	</g>
</g>
<g>
	<g>
		<path d="M132.828,58.104c-0.008,0-0.015,0-0.023,0c-4.131,0-7.487,3.343-7.5,7.478l-0.014,4.602
			c-0.012,4.142,3.335,7.51,7.478,7.522c0.008,0,0.015,0,0.023,0c4.131,0,7.487-3.343,7.5-7.478l0.014-4.602
			C140.318,61.484,136.97,58.116,132.828,58.104z"/>
	</g>
</g>
<g>
	<g>
		<path d="M150.357,45.264l-4.602-0.013c-0.007,0-0.015,0-0.022,0c-4.132,0-7.488,3.344-7.5,7.479
			c-0.011,4.142,3.337,7.509,7.479,7.521l4.602,0.013c0.007,0,0.015,0,0.022,0c4.132,0,7.488-3.344,7.5-7.479
			C157.848,48.643,154.5,45.275,150.357,45.264z"/>
	</g>
</g>
<g>
	<g>
		<path d="M119.975,45.177l-4.602-0.014c-0.008,0-0.015,0-0.023,0c-4.131,0-7.487,3.343-7.5,7.478
			c-0.012,4.141,3.336,7.509,7.478,7.522l4.602,0.014c0.008,0,0.015,0,0.023,0c4.131,0,7.487-3.343,7.5-7.478
			C127.465,48.557,124.118,45.189,119.975,45.177z"/>
	</g>
</g>
<g>
</g>
<g>
</g>
<g>
</g>
<g>
</g>
<g>
</g>
<g>
</g>
<g>
</g>
<g>
</g>
<g>
</g>
<g>
</g>
<g>
</g>
<g>
</g>
<g>
</g>
<g>
</g>
<g>
</g>
</svg>
