<svg height="480pt" viewBox="0 0 480 480.02337" width="480pt" xmlns="http://www.w3.org/2000/svg"><path d="m472.011719 432.023438h-8v-72c0-2.253907-.953125-4.402344-2.621094-5.917969s-3.894531-2.257813-6.140625-2.042969c-148.132812 14.105469-198.542969 41.058594-209.71875 48.304688-1.847656-.113282-3.566406-.34375-5.519531-.34375s-3.671875.230468-5.519531.34375c-11.199219-7.246094-61.601563-34.199219-209.71875-48.304688-2.246094-.214844-4.472657.527344-6.140626 2.042969-1.667968 1.515625-2.621093 3.664062-2.621093 5.917969v72h-8c-4.417969 0-8.0000002 3.582031-8.0000002 8v32c0 4.417968 3.5820312 8 8.0000002 8h200c4.417969 0 8-3.582032 8-8 0-13.253907 10.746093-24 24-24 13.253906 0 24 10.746093 24 24 0 4.417968 3.582031 8 8 8h200c4.417969 0 8-3.582032 8-8v-32c0-4.417969-3.582031-8-8-8zm-24-63.199219v31.199219h-96v16h96v16h-147.246094c-6.9375-11.957032-17.65625-21.269532-30.464844-26.464844 23.621094-10.078125 75.351563-26.335938 177.710938-36.734375zm-416 47.199219h96v-16h-96v-31.199219c101.425781 10.277343 153.542969 26.648437 177.503906 36.800781-12.726563 5.214844-23.363281 14.496094-30.257813 26.398438h-147.246093zm-16 48v-16h48v16zm224-32c-19 .019531-35.375 13.386718-39.199219 32h-120.800781v-16h104c3.03125 0 5.804687-1.710938 7.160156-4.425782 9.144531-18.292968 25.574219-27.574218 48.839844-27.574218s39.695312 9.28125 48.800781 27.574218c1.359375 2.726563 4.152344 4.441406 7.199219 4.425782h104v16h-120.800781c-3.824219-18.613282-20.199219-31.980469-39.199219-32zm224 32h-48v-16h48zm0 0"/><path d="m320.011719 400.023438h16v16h-16zm0 0"/><path d="m180.234375 1.230469c-3.152344-1.960938-7.238281-1.5-9.871094 1.121093-2.085937 2.078126-51.144531 51.617188-49.597656 112 .796875 31.160157 14.886719 59.289063 41.917969 83.617188 72.976562 65.679688 62.175781 102.269531 61.863281 103.199219-1.183594 3.195312-.210937 6.792969 2.421875 8.957031 2.636719 2.164062 6.351562 2.421875 9.257812.640625 2.183594-1.34375 53.601563-33.46875 57.785157-79.871094 2.199219-24.246093-8.800781-47.429687-32.625-68.886719-87.65625-78.785156-87.613281-122.320312-77.800781-151.433593 1.1875-3.515625-.203126-7.382813-3.351563-9.34375zm70.402344 172.738281c19.878906 17.886719 29.09375 36.558594 27.390625 55.503906-2.246094 25.125-22.871094 46.246094-36.984375 57.933594-2.246094-19.925781-15.472657-54.320312-67.703125-101.328125-23.617188-21.246094-35.9375-45.496094-36.625-72.039063-.800782-30.589843 13.878906-58.886718 26.664062-77.601562.488282 40.945312 28.535156 84.664062 87.28125 137.53125zm0 0"/><path d="m275.089844 81.71875c-12.308594 7.964844-19.679688 21.683594-19.527344 36.34375 1.601562 27.433594 34.882812 47.9375 36.296875 48.800781 1.328125.816407 2.855469 1.25 4.417969 1.257813 1.597656.011718 3.160156-.484375 4.460937-1.417969 2.613281-1.800781 3.855469-5.015625 3.136719-8.105469 0-.175781-1.800781-17.933594 37.058594-48.261718 13.738281-9.441407 22.171875-24.851563 22.710937-41.511719.34375-35.007813-37-65.753907-38.59375-67.039063-2.816406-2.285156-6.816406-2.386718-9.746093-.25-2.929688 2.132813-4.058594 5.972656-2.75 9.351563 5.328124 13.71875 7.242187 35.953125-37.464844 70.832031zm55.777344-51.199219c9.632812 10.539063 15.535156 23.949219 16.800781 38.167969-.558594 11.761719-6.710938 22.550781-16.550781 29.015625-26.175782 20.425781-36.714844 36.984375-40.800782 48.191406-8.472656-7.199219-18.136718-17.949219-18.761718-28.800781.3125-9.371094 5.351562-17.945312 13.394531-22.773438 28.222656-22.023437 43.4375-43.097656 45.917969-63.785156zm0 0"/><path d="m240.011719 216.023438h16v16h-16zm0 0"/><path d="m216.011719 192.023438h16v16h-16zm0 0"/><path d="m360.011719 216.023438c0 4.417968 3.582031 8 8 8 13.253906 0 24 10.746093 24 24 0 4.417968 3.582031 8 8 8s8-3.582032 8-8c0-13.253907 10.746093-24 24-24 4.417969 0 8-3.582032 8-8 0-4.417969-3.582031-8-8-8-13.253907 0-24-10.746094-24-24 0-4.417969-3.582031-8-8-8s-8 3.582031-8 8c0 13.253906-10.746094 24-24 24-4.417969 0-8 3.582031-8 8zm40-8.25c2.332031 3.140624 5.109375 5.917968 8.246093 8.25-3.136718 2.332031-5.914062 5.109374-8.246093 8.246093-2.332031-3.136719-5.109375-5.914062-8.246094-8.246093 3.136719-2.332032 5.914063-5.109376 8.246094-8.25zm0 0"/><path d="m96.011719 296.023438c0 4.417968 3.582031 8 8 8 13.253906 0 24 10.746093 24 24 0 4.417968 3.582031 8 8 8s8-3.582032 8-8c0-13.253907 10.746093-24 24-24 4.417969 0 8-3.582032 8-8 0-4.417969-3.582031-8-8-8-13.253907 0-24-10.746094-24-24 0-4.417969-3.582031-8-8-8s-8 3.582031-8 8c0 13.253906-10.746094 24-24 24-4.417969 0-8 3.582031-8 8zm40-8.25c2.332031 3.140624 5.109375 5.917968 8.246093 8.25-3.136718 2.332031-5.914062 5.109374-8.246093 8.246093-2.332031-3.136719-5.109375-5.914062-8.246094-8.246093 3.136719-2.332032 5.914063-5.109376 8.246094-8.25zm0 0"/><path d="m272.011719 32.023438c-13.253907 0-24-10.746094-24-24 0-4.417969-3.582031-8.0000005-8-8.0000005s-8 3.5820315-8 8.0000005c0 13.253906-10.746094 24-24 24-4.417969 0-8 3.582031-8 8 0 4.417968 3.582031 8 8 8 13.253906 0 24 10.746093 24 24 0 4.417968 3.582031 8 8 8s8-3.582032 8-8c0-13.253907 10.746093-24 24-24 4.417969 0 8-3.582032 8-8 0-4.417969-3.582031-8-8-8zm-32 16.246093c-2.332031-3.136719-5.109375-5.914062-8.246094-8.246093 3.136719-2.332032 5.914063-5.109376 8.246094-8.25 2.332031 3.140624 5.109375 5.917968 8.246093 8.25-3.136718 2.332031-5.914062 5.109374-8.246093 8.246093zm0 0"/><path d="m328.011719 152.023438h16v16h-16zm0 0"/><path d="m328.011719 256.023438h16v16h-16zm0 0"/><path d="m120.011719 216.023438h16v16h-16zm0 0"/><path d="m200.011719 336.023438h16v16h-16zm0 0"/><path d="m48.011719 296.023438h16v16h-16zm0 0"/><path d="m272.011719 320.023438c0 13.253906 10.746093 24 24 24 13.253906 0 24-10.746094 24-24 0-13.253907-10.746094-24-24-24-13.253907 0-24 10.746093-24 24zm32 0c0 4.417968-3.582031 8-8 8s-8-3.582032-8-8c0-4.417969 3.582031-8 8-8s8 3.582031 8 8zm0 0"/><path d="m80.011719 160.023438c-13.253907 0-24 10.746093-24 24 0 13.253906 10.746093 24 24 24 13.253906 0 24-10.746094 24-24 0-13.253907-10.746094-24-24-24zm0 32c-4.417969 0-8-3.582032-8-8 0-4.417969 3.582031-8 8-8s8 3.582031 8 8c0 4.417968-3.582031 8-8 8zm0 0"/><path d="m408.011719 128.023438c13.253906 0 24-10.746094 24-24 0-13.253907-10.746094-24-24-24-13.253907 0-24 10.746093-24 24 0 13.253906 10.746093 24 24 24zm0-32c4.417969 0 8 3.582031 8 8 0 4.417968-3.582031 8-8 8s-8-3.582032-8-8c0-4.417969 3.582031-8 8-8zm0 0"/></svg>