<svg height="512" viewBox="0 0 60 60" width="512" xmlns="http://www.w3.org/2000/svg"><g id="Page-1" fill="none" fill-rule="evenodd"><g id="028---Treasure-Map" fill="rgb(0,0,0)" fill-rule="nonzero"><path id="Shape" d="m1.374 58.345c.89808955.927973 2.10213744 1.4989098 3.389 1.607.07660689.0261261.15626443.0422593.237.048h39c.3037783.000114.5911385-.1378631.781-.375l3.219-4.025 3.219 4.024c.1896629.2375116.4770531.375871.781.376h6c1.1045695 0 2-.8954305 2-2v-33c0-1.1045695-.8954305-2-2-2h-5.285c1.8239723-3.334349 2.7864206-7.0713982 2.8-10.872.0000001-4.28718714-2.287187-8.24871146-5.9999999-10.39230506-3.712813-2.14359359-8.2871872-2.14359359-12.0000002 0-3.7128129 2.1435936-6 6.10511792-5.9999999 10.39230506.0152929 3.8011343.9798195 7.5382453 2.806 10.872h-1.321c-.3147573 0-.6111456.1481942-.8.4l-2.2 2.933-2.2-2.933c-.1888544-.2518058-.4852427-.4-.8-.4h-12v-2c0-1.1045695-.8954305-2-2-2h-8c-1.32648927-.0013285-2.59903085.5250291-3.53700088 1.4629991-.93797002.93797-1.4643276 2.2105116-1.46299912 3.5370009v31c.00567459.0442076.01436146.0879761.026.131.03396306 1.2017003.5145735 2.3476068 1.348 3.214zm33.033-50.381c1.9440548-4.30021887 6.629827-6.65599146 11.2408952-5.65136149s7.8921418 5.09616783 7.8711048 9.81536149c-.0323223 4.0166976-1.2014238 7.9421327-3.372 11.322-.057.1-.119.192-.181.285l-.066.1c-1.7329227 2.6431599-3.8886812 4.9833792-6.381 6.927-2.4949841-1.9456798-4.652809-4.2886446-6.387-6.935l-.061-.09c-.062-.093-.124-.185-.2-.314-2.1604398-3.3727342-3.3228493-7.2877626-3.353-11.293-.0056541-1.4363305.2975282-2.85709267.889-4.166zm5.157 21.983c1.0484894 1.0571022 2.1860209 2.0219966 3.4 2.884.3371795.2264307.7778205.2264307 1.115 0 1.207173-.8575686 2.3377379-1.818164 3.379-2.871.837393.3609895 1.4231286 1.1358927 1.542 2.04 0 1.419-2.259 3-5.5 3s-5.5-1.581-5.5-3c.1253151-.9112195.7187682-1.6902216 1.564-2.053zm-10.364-1.347c.1888544.2518058.4852427.4.8.4s.6111456-.1481942.8-.4l2.7-3.6h2.013c.7983083 1.2204931 1.6857252 2.3803185 2.655 3.47-1.2710815.7364204-2.0859973 2.0632898-2.168 3.53 0 2.8 3.294 5 7.5 5s7.5-2.2 7.5-5c-.0768442-1.4598878-.8844933-2.7826577-2.148-3.518.9733432-1.0948173 1.8663334-2.2585119 2.672-3.482h6.476v16.9c-.084-.016-.172-.025-.254-.045-.3298437-.0821045-.6482623-.2047024-.948-.365-.2886955-.1574197-.5630737-.3397808-.82-.545-.2806224-.2251534-.660563-.2822048-.9949362-.1493982-.3343731.1328065-.5716299.4349968-.6212954.7913341-.0496655.3563374.0959171.711887.3812316.9310641.3486003.2776332.7210483.5239241 1.113.736.4450234.2383947.9179937.4204613 1.408.542.2426792.0579378.4883916.1023396.736.133v14.071h-5.52l-3.7-4.625c-.1967485-.2257433-.4815505-.3553128-.781-.3553128s-.5842515.1295695-.781.3553128l-3.698 4.625h-22.52v-3c0-.5522847-.4477153-1-1-1s-1 .4477153-1 1v3h-13.774c-.90737817-.0046685-1.77380411-.3783146-2.4-1.035-.55495626-.5586424-.85395199-1.3220588-.826-2.109.07339533-1.6019673 1.39636149-2.861431 3-2.856h8c1.1045695 0 2-.8954305 2-2v-9.9c.083.016.171.025.252.045.3299089.0818979.6483525.2045054.948.365.2890249.1573959.5637373.3397568.821.545.279993.2321302.6639419.2939385 1.0026385.1614052.3386967-.1325333.5787306-.4385084.626821-.7990189s-.1033463-.7187059-.3954595-.9353863c-.3486003-.2776332-.7210483-.5239241-1.113-.736-.4445902-.2383326-.9172644-.4200787-1.407-.541-.2421884-.0593945-.4875941-.1048029-.735-.136v-13.069h11.5zm-26.328-6.718c.56482067-.5637895 1.32995252-.8809165 2.128-.882h1v3c0 .5522847.44771525 1 1 1s1-.4477153 1-1v-3h5v29h-3v-3c0-.5522847-.44771525-1-1-1s-1 .4477153-1 1v3h-3c-1.08510922.0058134-2.13858739.3661029-3 1.026v-27.026c.00019486-.7933272.31357688-1.5545005.872-2.118z"/><path id="Shape" d="m43.448 20c3.2420905.02918 6.1812056-1.9013476 7.4421713-4.8883139 1.2609658-2.9869662.5944062-6.43965109-1.6878042-8.7425879-2.2822104-2.3029368-5.7287281-3.00068318-8.7269721-1.76677262-2.9982439 1.23391056-4.9552637 4.15545264-4.955395 7.39767442-.0144072 4.3961549 3.5318946 7.9746632 7.928 8zm0-14c2.4331127-.02919945 4.642931 1.41399496 5.5943453 3.65357097.9514144 2.23957603.4560045 4.83200263-1.2541729 6.56295133-1.7101773 1.7309488-4.2964345 2.2576184-6.5473328 1.3333095-2.2508982-.9243089-3.7206644-3.1165439-3.7208396-5.5498318-.0160752-3.2922749 2.6357709-5.97632973 5.928-6z"/><path id="Shape" d="m19.168 32.555c.1471733.2206869.3759984.3738581.6361213.4258077.2601229.0519495.5302285-.0015795.7508787-.1488077l1.7-1.13 1.7 1.13c.297245.1982824.6776931.2229246.9980331.0646441.3203401-.1582805.5319049-.4754371.555-.832s-.1457881-.6983617-.4430331-.8966441l-1-.668 1-.668c.297245-.1982824.4661282-.5400812.4430331-.8966441s-.2346599-.6737195-.555-.832c-.32034-.1582805-.7007881-.1336383-.9980331.0646441l-1.7 1.13-1.7-1.13c-.4595009-.306518-1.080482-.1825009-1.387.277s-.1825009 1.080482.277 1.387l1 .668-1 .668c-.2206869.1471733-.3738581.3759984-.4258077.6361213-.0519495.2601229.0015795.5302285.1488077.7508787z"/><path id="Shape" d="m30.187 53.581c.320797.4489702.9446332.5532412 1.394.233l2.919-2.085 2.919 2.085c.4495598.3208774 1.0741226.2165598 1.395-.233s.2165598-1.0741226-.233-1.395l-2.36-1.686 2.36-1.686c.4495598-.3208774.5538774-.9454402.233-1.395s-.9454402-.5538774-1.395-.233l-2.919 2.085-2.919-2.085c-.4495598-.3208774-1.0741226-.2165598-1.395.233s-.2165598 1.0741226.233 1.395l2.36 1.686-2.36 1.686c-.4492645.3211655-.5531316.9457113-.232 1.395z"/><path id="Shape" d="m50 40c.4219181-.0043965.8427659.0432974 1.253.142.330132.0822019.6488698.2047934.949.365.3157247.1748735.7011832.1660482 1.0085735-.0230921.3073904-.1891402.4890103-.5292437.4752185-.8898995-.0137917-.3606559-.2208548-.6858958-.541792-.8510084-.445182-.238574-.9185483-.4203279-1.409-.541-.5677676-.1387503-1.1505425-.2066007-1.735-.202-.5522847 0-1 .4477153-1 1s.4477153 1 1 1z"/><path id="Shape" d="m43.667 43.375c.1635488-.000061.3245864-.0402346.469-.117.3926159-.2124007.7657289-.4590233 1.115-.737.315-.247.612-.51.908-.773.267-.237.532-.474.815-.7.2853145-.2191771.4308971-.5747267.3812316-.9310641-.0496655-.3563373-.2869223-.6585276-.6212954-.7913341-.3343732-.1328066-.7143138-.0757552-.9949362.1493982-.315.247-.612.51-.908.773-.267.237-.532.474-.814.7-.2570173.2052877-.5317639.3873366-.821.544-.4056761.2156422-.6122252.6799609-.5007417 1.1256582s.5123137.7580904.9717417.7573418z"/><path id="Shape" d="m37.852 43.257c.4444405.2386593.9171567.4204215 1.407.541.0790655.0202355.1603867.0303166.242.03.5043358-.0015563.9285835-.3784253.9895747-.879062.0609913-.5006366-.2603643-.9683405-.7495747-1.090938-.3298437-.0821045-.6482623-.2047024-.948-.365-.288586-.1570792-.5626612-.3394613-.819-.545-.2806224-.2251534-.660563-.2822048-.9949362-.1493982-.3343731.1328065-.5716299.4349968-.6212954.7913341-.0496655.3563374.0959171.711887.3812316.9310641.3481846.2782047.7206851.5245303 1.113.736z"/><path id="Shape" d="m32 40c.4215881-.0043957.842105.0432987 1.252.142.3299089.0818979.6483525.2045054.948.365.3157247.1748735.7011832.1660482 1.0085735-.0230921.3073904-.1891402.4890103-.5292437.4752185-.8898995-.0137917-.3606559-.2208548-.6858958-.541792-.8510084-.4447072-.2388438-.9177778-.4206131-1.408-.541-.5676236-.1376601-1.1499326-.2054954-1.734-.202-.5522847 0-1 .4477153-1 1s.4477153 1 1 1z"/><path id="Shape" d="m26.637 42.734c.2234762.0004869.4405566-.074575.616-.213.315-.247.612-.51.908-.773.267-.237.532-.474.815-.7.2853145-.2191771.4308971-.5747267.3812316-.9310641-.0496655-.3563373-.2869223-.6585276-.6212954-.7913341-.3343732-.1328066-.7143138-.0757552-.9949362.1493982-.315.247-.612.51-.908.773-.267.237-.532.474-.814.7-.3349641.2634652-.4661533.7102674-.3267973 1.1130015.1393559.4027342.5186343.672902.9447973.6729985z"/><path id="Shape" d="m23 42c-.4219181.0043965-.8427659-.0432974-1.253-.142-.3295651-.0819766-.6476683-.2045823-.947-.365-.3157247-.1748735-.7011832-.1660482-1.0085735.0230921-.3073904.1891402-.4890103.5292437-.4752185.8898995.0137917.3606559.2208548.6858958.541792.8510084.4443917.2387657.9171216.4205332 1.407.541.5677676.1387503 1.1505425.2066007 1.735.202.5522847 0 1-.4477153 1-1s-.4477153-1-1-1z"/></g></g></svg>