<?xml version="1.0" encoding="iso-8859-1"?>
<!-- Generator: Adobe Illustrator 19.0.0, SVG Export Plug-In . SVG Version: 6.00 Build 0)  -->
<svg version="1.1" id="Capa_1" xmlns="http://www.w3.org/2000/svg" xmlns:xlink="http://www.w3.org/1999/xlink" x="0px" y="0px"
	 viewBox="0 0 511.999 511.999" style="enable-background:new 0 0 511.999 511.999;" xml:space="preserve">
<g>
	<g>
		<path d="M504.151,246.06V28.786c0-4.148-3.362-7.511-7.511-7.511H15.36c-4.149,0-7.511,3.363-7.511,7.511v217.275
			C3.187,248.529,0,253.425,0,259.057v15.417c0,5.632,3.187,10.529,7.849,12.997v195.741c0,4.148,3.363,7.511,7.511,7.511h34.124
			h33.505h2.273H169.4h86.413h86.412h84.513h1.898h33.879h34.124c4.149,0,7.511-3.363,7.511-7.511V287.471
			c4.662-2.469,7.849-7.365,7.849-12.997v-15.417C512,253.425,508.813,248.529,504.151,246.06z M486.295,36.298
			c-3.009,4.424-8.563,9.606-17.355,15.128c-0.108,0.068-0.218,0.135-0.326,0.203c-0.51,0.318-1.034,0.637-1.565,0.957
			c-0.243,0.146-0.486,0.291-0.732,0.437c-0.404,0.24-0.819,0.48-1.236,0.721c-0.336,0.194-0.671,0.388-1.015,0.583
			c-0.33,0.187-0.671,0.375-1.009,0.562c-0.42,0.233-0.835,0.466-1.266,0.7c-0.075,0.041-0.154,0.082-0.229,0.122
			c-1.088,0.588-2.215,1.176-3.371,1.766c-0.311,0.159-0.616,0.317-0.933,0.475c-0.443,0.223-0.899,0.445-1.351,0.668
			c-0.416,0.204-0.831,0.409-1.256,0.613c-0.406,0.196-0.818,0.391-1.231,0.587c-0.528,0.25-1.062,0.5-1.604,0.75
			c-0.335,0.155-0.671,0.31-1.011,0.465c-0.739,0.337-1.491,0.674-2.255,1.011c-0.166,0.074-0.329,0.147-0.497,0.221
			c-3.071,1.346-6.338,2.696-9.816,4.045c-0.001,0-0.001,0.001-0.002,0.001c-4.496,1.744-9.297,3.47-14.431,5.166
			c-13.896,4.589-28.874,8.565-44.639,11.9c-0.25,0.027-0.5,0.064-0.751,0.117c-14.958,3.13-30.702,5.703-46.793,7.649
			c-0.203,0.025-0.402,0.067-0.602,0.107C306.795,94.141,281.524,95.65,256,95.65s-50.796-1.508-75.02-4.396
			c-0.199-0.041-0.397-0.083-0.6-0.107c-16.098-1.947-31.841-4.52-46.793-7.649c-0.251-0.053-0.501-0.09-0.751-0.117
			c-15.765-3.335-30.743-7.311-44.639-11.9c-5.134-1.695-9.936-3.422-14.431-5.166c-0.001,0-0.002-0.001-0.002-0.001
			c-3.477-1.348-6.744-2.698-9.814-4.044c-0.169-0.074-0.334-0.149-0.502-0.223c-0.763-0.337-1.513-0.673-2.251-1.009
			c-0.34-0.155-0.676-0.31-1.011-0.465c-0.542-0.25-1.076-0.501-1.604-0.75c-0.413-0.196-0.825-0.391-1.231-0.587
			c-0.425-0.205-0.84-0.409-1.256-0.613c-0.453-0.223-0.908-0.445-1.351-0.668c-0.316-0.159-0.622-0.317-0.933-0.475
			c-1.144-0.583-2.26-1.166-3.338-1.748c-0.087-0.047-0.178-0.094-0.264-0.141c-0.429-0.232-0.842-0.464-1.26-0.697
			c-0.339-0.188-0.682-0.377-1.013-0.565c-0.344-0.195-0.679-0.389-1.015-0.583c-0.417-0.241-0.831-0.481-1.236-0.721
			c-0.247-0.146-0.49-0.292-0.732-0.437c-0.532-0.32-1.055-0.639-1.565-0.957c-0.109-0.068-0.218-0.135-0.326-0.203
			c-8.793-5.523-14.347-10.706-17.356-15.129H486.295z M22.871,55.361c2.314,2.003,4.969,4.043,7.978,6.109
			c7.981,5.522,18.618,11.266,32.739,17.002c-0.011,47.187-13.773,99.697-25.55,135.99c-1.28,3.946,0.88,8.183,4.827,9.463
			c3.94,1.278,8.181-0.881,9.463-4.826c11.656-35.921,25.19-87.393,26.213-135.029c1.615,0.559,3.257,1.118,4.945,1.675
			c12.247,4.044,25.292,7.63,38.954,10.734c-15.875,49.256-41.758,89.864-61.157,115.738c-2.488,3.319-1.815,8.027,1.504,10.515
			c1.351,1.013,2.932,1.502,4.5,1.502c2.284,0,4.54-1.038,6.016-3.006c20.292-27.065,47.451-69.724,63.92-121.627
			c10.345,2.026,20.99,3.785,31.861,5.27c-15.911,38.982-47.741,79.134-72.526,106.783c-2.769,3.089-2.51,7.838,0.58,10.607
			c3.09,2.77,7.838,2.509,10.607-0.579c46.213-51.553,67.202-90.191,76.735-114.913c23.207,2.566,47.263,3.902,71.519,3.902
			c24.258,0,48.315-1.336,71.523-3.902c16.241,42.241,50.401,85.548,76.796,114.987c2.768,3.088,7.517,3.347,10.607,0.578
			c3.089-2.769,3.348-7.518,0.578-10.607c-24.808-27.668-56.669-67.852-72.589-106.855c10.872-1.484,21.516-3.243,31.861-5.27
			c16.489,51.965,43.693,94.667,64.02,121.759c1.476,1.967,3.73,3.004,6.014,3.004c1.569,0,3.151-0.49,4.502-1.504
			c3.318-2.49,3.99-7.198,1.5-10.516c-19.433-25.9-45.359-66.551-61.253-115.867c13.661-3.104,26.707-6.69,38.954-10.734
			c1.688-0.557,3.33-1.116,4.945-1.675c1.023,47.611,14.543,99.05,26.187,134.947c1.28,3.947,5.517,6.105,9.463,4.828
			c3.945-1.28,6.107-5.517,4.827-9.463c-11.765-36.27-25.512-88.746-25.523-135.91c14.121-5.736,24.758-11.48,32.739-17.002
			c3.009-2.066,5.665-4.105,7.978-6.109v188.993h-41.666c-8.107,0-14.703,6.596-14.703,14.703v15.417
			c0,3.995,1.607,7.618,4.202,10.271c-4.548,13.824-9.97,31.176-15.167,49.972H90.207c-5.198-18.796-10.621-36.151-15.168-49.972
			c2.595-2.653,4.202-6.276,4.202-10.271v-15.417c0-8.107-6.596-14.703-14.703-14.703H22.871V55.361z M15.023,274.154v-14.777
			h49.195v14.777H35.669H15.36H15.023z M53.671,473.255c-0.831,1.509-2.435,2.446-4.187,2.446H22.871V289.177h7.196
			C57.425,381.8,66.255,450.404,53.671,473.255z M90.5,475.701v-41.459c0-8.927,7.263-16.19,16.19-16.19h39.01
			c8.927,0,16.189,7.263,16.189,16.19v41.459H90.5z M176.912,475.701v-41.459c0-8.927,7.263-16.19,16.19-16.19h39.009
			c8.928,0,16.19,7.263,16.19,16.19v41.459H176.912z M263.325,475.701v-41.459c0-8.927,7.263-16.19,16.189-16.19h39.009
			c8.928,0,16.19,7.263,16.19,16.19v41.459H263.325z M421.125,475.701h-71.389v-41.459c0-8.927,7.263-16.19,16.19-16.19h39.009
			c8.927,0,16.19,7.263,16.19,16.19V475.701z M436.148,475.7v-41.458c0-17.211-14.002-31.213-31.212-31.213h-39.009
			c-9.476,0-17.972,4.25-23.702,10.938c-5.729-6.688-14.226-10.938-23.702-10.938h-39.009c-9.475,0-17.972,4.25-23.701,10.937
			c-5.729-6.687-14.226-10.937-23.702-10.937h-39.009c-9.475,0-17.972,4.25-23.702,10.937c-5.729-6.687-14.226-10.937-23.701-10.937
			H106.69c-17.211,0-31.213,14.002-31.213,31.213v41.459H69.06c15.224-38.477-6.53-128.824-23.338-186.524h14.961
			c7.097,21.554,16.385,51.904,23.501,82.723c0.933,4.042,4.966,6.562,9.009,5.629c4.042-0.933,6.562-4.966,5.629-9.009
			c-1.456-6.305-3-12.587-4.597-18.78h323.552c-1.613,6.253-3.172,12.598-4.64,18.966c-0.932,4.042,1.589,8.075,5.632,9.007
			c0.568,0.131,1.135,0.194,1.695,0.194c3.419,0,6.511-2.35,7.313-5.825c7.123-30.887,16.43-61.306,23.542-82.906h14.961
			c-16.808,57.7-38.562,148.047-23.338,186.524H436.148z M489.129,475.701h-26.612c-1.752,0-3.356-0.937-4.187-2.446
			c-12.584-22.85-3.754-91.455,23.603-184.078h7.196V475.701z M496.977,274.154h-0.337h-20.309h-28.549v-14.777h49.195V274.154z"/>
	</g>
</g>
<g>
</g>
<g>
</g>
<g>
</g>
<g>
</g>
<g>
</g>
<g>
</g>
<g>
</g>
<g>
</g>
<g>
</g>
<g>
</g>
<g>
</g>
<g>
</g>
<g>
</g>
<g>
</g>
<g>
</g>
</svg>
