<?xml version="1.0" encoding="iso-8859-1"?>
<!-- Generator: Adobe Illustrator 19.0.0, SVG Export Plug-In . SVG Version: 6.00 Build 0)  -->
<svg version="1.1" id="Capa_1" xmlns="http://www.w3.org/2000/svg" xmlns:xlink="http://www.w3.org/1999/xlink" x="0px" y="0px"
	 viewBox="0 0 512 512" style="enable-background:new 0 0 512 512;" xml:space="preserve">
<g>
	<g>
		<path d="M308.077,485.301h-90.323V363.102c0-4.21-3.413-7.623-7.623-7.623c-4.21,0-7.623,3.413-7.623,7.623v129.822
			c0,4.21,3.413,7.623,7.623,7.623h97.946c4.211,0,7.623-3.413,7.623-7.623C315.7,488.714,312.287,485.301,308.077,485.301z"/>
	</g>
</g>
<g>
	<g>
		<path d="M415.77,176.426H315.7v-76.89c0-4.21-3.412-7.623-7.623-7.623h-97.946c-4.21,0-7.623,3.413-7.623,7.623v76.89H102.439
			c-4.21,0-7.623,3.413-7.623,7.623v97.946c0,4.21,3.413,7.623,7.623,7.623h100.069v48.072c0,4.21,3.413,7.623,7.623,7.623
			c4.21,0,7.623-3.413,7.623-7.623v-55.695c0-4.21-3.413-7.623-7.623-7.623H110.062v-82.7h100.069c4.21,0,7.623-3.413,7.623-7.623
			v-76.89h82.7v76.89c0,4.21,3.412,7.623,7.623,7.623h100.069v36.971c0,4.21,3.412,7.623,7.623,7.623s7.623-3.413,7.623-7.623
			v-44.594C423.392,179.839,419.98,176.426,415.77,176.426z"/>
	</g>
</g>
<g>
	<g>
		<path d="M382.853,209.343H282.784v-76.891c0-4.21-3.412-7.623-7.623-7.623h-32.113c-4.21,0-7.623,3.413-7.623,7.623v76.891
			H135.356c-4.21,0-7.623,3.413-7.623,7.623v32.113c0,4.21,3.413,7.623,7.623,7.623h100.069v203.306c0,4.21,3.413,7.623,7.623,7.623
			h22.965c4.211,0,7.623-3.413,7.623-7.623c0-4.21-3.412-7.623-7.623-7.623h-15.342V249.078c0-4.21-3.413-7.623-7.623-7.623H142.979
			v-16.867h100.069c4.21,0,7.623-3.413,7.623-7.623v-76.891h16.867v76.891c0,4.21,3.412,7.623,7.623,7.623H375.23v7.104
			c0,4.21,3.412,7.623,7.623,7.623c4.211,0,7.623-3.413,7.623-7.623v-14.726C390.476,212.756,387.064,209.343,382.853,209.343z"/>
	</g>
</g>
<g>
	<g>
		<path d="M333.754,241.455h-58.594c-4.211,0-7.623,3.413-7.623,7.623v45.117c0,4.21,3.412,7.623,7.623,7.623
			s7.623-3.413,7.623-7.623v-37.494h50.971c4.211,0,7.623-3.413,7.623-7.623C341.377,244.869,337.965,241.455,333.754,241.455z"/>
	</g>
</g>
<g>
	<g>
		<path d="M465.955,471.419c-3.277,0.347-6.559,0.522-9.754,0.522c-24.169,0-46.969-9.332-64.199-26.277
			c-3-2.951-7.825-2.913-10.78,0.089c-2.952,3.001-2.911,7.828,0.09,10.78c16.316,16.047,36.91,26.239,59.169,29.509
			c-15.179,7.053-31.735,10.712-48.885,10.712c-64.17,0-116.376-52.206-116.376-116.376s52.206-116.376,116.376-116.376
			c17.158,0,33.719,3.661,48.9,10.719c-51.476,7.619-91.105,52.097-91.105,105.657c0,19.401,5.257,38.401,15.2,54.948
			c2.17,3.609,6.854,4.776,10.461,2.607c3.609-2.169,4.776-6.851,2.607-10.461c-8.519-14.176-13.023-30.46-13.023-47.094
			c0-50.488,41.075-91.563,91.563-91.563c3.2,0,6.482,0.176,9.752,0.522c3.411,0.353,6.623-1.588,7.886-4.763
			c1.263-3.176,0.259-6.805-2.458-8.878c-23.092-17.625-50.681-26.94-79.785-26.94c-72.576,0-131.622,59.045-131.622,131.622
			S319.019,512,391.595,512c29.103,0,56.692-9.316,79.784-26.94c2.718-2.073,3.722-5.702,2.459-8.877
			C472.574,473.005,469.341,471.062,465.955,471.419z"/>
	</g>
</g>
<g>
	<g>
		<path d="M511.591,365.599c-0.896-2.759-3.282-4.771-6.154-5.188l-31.099-4.519l-13.907-28.18c-1.285-2.603-3.934-4.25-6.836-4.25
			s-5.552,1.648-6.836,4.25l-13.908,28.181l-31.099,4.519c-2.871,0.417-5.258,2.428-6.154,5.188
			c-0.896,2.759-0.148,5.789,1.928,7.814l22.504,21.936l-5.312,30.973c-0.491,2.859,0.685,5.75,3.032,7.455
			c2.347,1.705,5.458,1.93,8.027,0.58l27.815-14.624l27.814,14.624c1.116,0.586,2.334,0.875,3.546,0.875
			c1.58,0,3.154-0.491,4.481-1.456c2.348-1.706,3.524-4.596,3.032-7.455l-5.312-30.973l22.504-21.936
			C511.741,371.388,512.488,368.358,511.591,365.599z M473.648,387.229c-1.797,1.751-2.616,4.275-2.192,6.747l3.378,19.7
			l-17.69-9.301c-2.221-1.167-4.873-1.168-7.094,0l-17.691,9.301l3.377-19.7c0.425-2.473-0.395-4.996-2.191-6.747l-14.313-13.952
			l19.78-2.874c2.483-0.361,4.63-1.92,5.74-4.17l8.846-17.923l8.845,17.923c1.111,2.25,3.256,3.809,5.74,4.17l19.78,2.874
			L473.648,387.229z"/>
	</g>
</g>
<g>
	<g>
		<path d="M161.166,107.878l26.741-46.316c1.362-2.358,1.362-5.265,0-7.623c-1.362-2.358-3.878-3.811-6.601-3.811h-53.481
			L101.084,3.811C99.722,1.453,97.205,0,94.482,0s-5.24,1.453-6.601,3.811L61.14,50.128H7.658c-2.724,0-5.239,1.453-6.601,3.811
			s-1.362,5.265,0,7.623l26.741,46.316L1.057,154.194c-1.362,2.358-1.362,5.265,0,7.623s3.878,3.811,6.601,3.811H61.14
			l13.647,23.637c1.412,2.445,3.974,3.813,6.609,3.813c1.293,0,2.604-0.329,3.804-1.022c3.646-2.105,4.895-6.767,2.79-10.413
			l-9.246-16.014h102.562c2.724,0,5.239-1.453,6.601-3.811c1.362-2.358,1.362-5.265,0-7.623L161.166,107.878z M168.103,65.374
			l-15.738,27.259l-15.738-27.259H168.103z M94.482,22.869l15.739,27.259H78.743L94.482,22.869z M20.861,65.374h31.476
			L36.599,92.632L20.861,65.374z M20.861,150.382l15.738-27.259l15.738,27.259H20.861z M69.941,150.382l-24.54-42.504l24.54-42.504
			h49.081l24.541,42.504l-14.56,25.218c-2.105,3.646-0.856,8.308,2.79,10.413c3.645,2.105,8.307,0.855,10.413-2.79l10.159-17.595
			l15.738,27.258H69.941z"/>
	</g>
</g>
<g>
</g>
<g>
</g>
<g>
</g>
<g>
</g>
<g>
</g>
<g>
</g>
<g>
</g>
<g>
</g>
<g>
</g>
<g>
</g>
<g>
</g>
<g>
</g>
<g>
</g>
<g>
</g>
<g>
</g>
</svg>
