<svg id="_x33_0" enable-background="new 0 0 64 64" height="512" viewBox="0 0 64 64" width="512" xmlns="http://www.w3.org/2000/svg"><g><path d="m8 11.586-6.707 6.707 1.414 1.414 4.293-4.293v27.586h2v-27.586l4.293 4.293 1.414-1.414z"/><path d="m59 45h2v2h-2z"/><path d="m57 47h2v2h-2z"/><path d="m55 43h2v-27.586l4.293 4.293 1.414-1.414-6.707-6.707-6.707 6.707 1.414 1.414 4.293-4.293z"/><path d="m33.947 48.736-1.805-11.736h-.284l-1.805 11.736 1.947 2.597z"/><path d="m36.863 29.133-.509-.072-2.741 2.74 2.618 1.572z"/><path d="m40 14v4c1.103 0 2-.897 2-2s-.897-2-2-2z"/><path d="m38 12c0-1.103-.897-2-2-2-2.483 0-3.859.814-5.454 1.759-1.219.721-2.581 1.527-4.546 2.037v4.204c0 3.309 2.691 6 6 6s6-2.691 6-6zm-9 3c.552 0 1 .448 1 1s-.448 1-1 1-1-.448-1-1 .448-1 1-1zm6.789 4.658c-.722 1.445-2.174 2.342-3.789 2.342s-3.067-.897-3.789-2.342l-.105-.211 1.789-.895.105.212c.381.762 1.147 1.236 2 1.236s1.619-.474 2-1.236l.105-.211 1.789.895zm-.789-2.658c-.552 0-1-.448-1-1s.448-1 1-1 1 .448 1 1-.448 1-1 1z"/><path d="m27.137 29.134.632 4.239 2.618-1.572-2.74-2.74z"/><path d="m34.379 25.639c-.751.234-1.551.361-2.379.361s-1.628-.127-2.379-.361l-.513 2.055 2.892 2.892 2.893-2.893z"/><path d="m22.63 12.257c.429-.158.887-.257 1.37-.257h.888c2.027-.42 3.356-1.203 4.639-1.963 1.693-1.001 3.443-2.037 6.473-2.037 2.206 0 4 1.794 4 4 .503 0 .979.103 1.422.273.265-.921.578-2.228.578-3.273 0-1.103-.897-2-2-2h-.5l-1.081-1.442c-1.201-1.602-3.114-2.558-5.116-2.558-.748 0-1.483.13-2.186.385l-6.578 2.392c-1.518.552-2.539 2.009-2.539 3.625 0 .314.039.629.115.935z"/><path d="m24 18v-4c-1.103 0-2 .897-2 2s.897 2 2 2z"/><path d="m44.217 30.727c-1.009-.504-2.086-.841-3.199-.999l-2.175-.311-1.074 7.21-2.846-1.708-.875 1.312 2.005 13.032-4.053 5.404-4.053-5.403 2.005-13.032-.875-1.312-2.846 1.708-1.075-7.21-2.173.311c-1.114.158-2.191.495-3.2.999-3.567 1.782-5.783 5.368-5.783 9.356v2.916h6v-4h2v22h20v-22h2v4h6v-2.916c0-3.988-2.216-7.574-5.783-9.357z"/><path d="m30.795 33.889.74 1.111h.93l.74-1.111-1.205-.723z"/><path d="m44 45h4v16h-4z"/><path d="m16 45h4v16h-4z"/><path d="m61 47h2v2h-2z"/><path d="m59 49h2v2h-2z"/><path d="m54 55h2v2h-2z"/><path d="m52 57h2v2h-2z"/><path d="m56 57h2v2h-2z"/><path d="m54 59h2v2h-2z"/><path d="m3 45h2v2h-2z"/><path d="m5 47h2v2h-2z"/><path d="m1 47h2v2h-2z"/><path d="m3 49h2v2h-2z"/><path d="m8 55h2v2h-2z"/><path d="m10 57h2v2h-2z"/><path d="m6 57h2v2h-2z"/><path d="m8 59h2v2h-2z"/></g></svg>