<svg enable-background="new 0 0 64 64" height="512" viewBox="0 0 64 64" width="512" xmlns="http://www.w3.org/2000/svg"><g id="Layer_26"><g><path d="m35.789 23.658.105-.211-1.789-.895-.105.212c-.381.762-1.147 1.236-2 1.236s-1.619-.474-2-1.236l-.105-.211-1.789.895.105.211c.722 1.444 2.174 2.341 3.789 2.341s3.067-.897 3.789-2.342z"/><circle cx="32" cy="58" r="1"/><path d="m60.256 38.017c2.127-4.06 2.744-8.458 2.744-10.017 0-1.947 0-6-4-6-.611 0-2.328.009-9.063 6.514.038-.356.063-.715.063-1.077v-.235c0-2.291-.788-4.538-2.219-6.326-1.148-1.436-1.781-3.238-1.781-5.077v-.799c0-7.72-6.28-14-14-14s-14 6.28-14 14v.799c0 1.839-.633 3.642-1.781 5.076-1.431 1.788-2.219 4.035-2.219 6.326v.235c0 .361.022.719.06 1.075-6.73-6.502-8.448-6.511-9.06-6.511-4 0-4 4.053-4 6 0 1.559.617 5.957 2.745 10.017-2.737.173-2.745 3.052-2.745 4.983 0 1.823 2.22 8.521 9.12 10.466l-1.261 9.534h46.281l-1.26-9.534c6.9-1.946 9.12-8.643 9.12-10.466 0-1.931-.008-4.81-2.744-4.983zm-1.256-14.017c1.701 0 2 1.29 2 4 0 1.966-1.522 11.999-8.493 15.078l-.198-1.495c-.258-1.954-1.041-3.804-2.265-5.349-.361-.457-.767-.877-1.196-1.269-.156-.577-.429-1.104-.806-1.548.137-.187.263-.38.386-.574 8.378-8.591 10.372-8.843 10.572-8.843zm-13.209 37h-4.791v-.455c0-2.8.734-5.564 2.123-7.995l.586-1.025c.076-.132.13-.274.2-.409zm-24.914-8.45c1.389 2.43 2.123 5.195 2.123 7.995v.455h-4.791l1.906-10.005c.222.532.475 1.052.762 1.555zm3.246 2.45h15.754c-.574 1.787-.877 3.658-.877 5.545v.455h-14v-.455c0-1.887-.303-3.758-.877-5.545zm18.877-8.336c0 1.354-.355 2.692-1.027 3.868l-.586 1.025c-.268.469-.506.953-.73 1.442h-17.313c-.224-.49-.462-.973-.73-1.442-1.056-1.846-1.614-3.947-1.614-6.075 0-.816.192-1.633.558-2.361.714-1.429 2.019-2.447 3.577-2.793l10.415-2.315c.549.937 1.464 1.635 2.551 1.885.41 1.775 2.003 3.102 3.899 3.102.021 0 .04-.005.061-.005.604 1.128.939 2.38.939 3.669zm-4-12.664h.78c-.48.532-.78 1.229-.78 2s.301 1.468.78 2h-.78c-1.103 0-2-.897-2-2s.897-2 2-2zm5-.22c-.532-.48-1.229-.78-2-.78s-1.468.301-2 .78v-.78c0-1.103.897-2 2-2s2 .897 2 2zm-1 2.22c0 .552-.448 1-1 1s-1-.448-1-1 .448-1 1-1 1 .448 1 1zm-1 5c-1.103 0-2-.897-2-2v-.78c.532.48 1.229.78 2 .78s1.468-.301 2-.78v.78c0 1.103-.897 2-2 2zm2.22-7h.78c1.103 0 2 .897 2 2s-.897 2-2 2h-.78c.48-.532.78-1.229.78-2s-.301-1.468-.78-2zm-28.22-6.799c0-1.839.633-3.642 1.781-5.076 1.431-1.788 2.219-4.035 2.219-6.326v-.799c0-6.617 5.383-12 12-12s12 5.383 12 12v.799c0 2.291.788 4.538 2.219 6.326 1.148 1.435 1.781 3.237 1.781 5.076v.235c0 1.748-.56 3.437-1.59 4.83-.167-.063-.335-.124-.511-.165-.41-1.774-2.003-3.101-3.899-3.101-1.581 0-2.94.928-3.589 2.263l-.152-.03c-.333-.066-.606-.295-.732-.609l-.739-1.847c3.102-1.701 5.212-4.997 5.212-8.777v-7h-6.758c-2.469 0-4.789-.961-6.535-2.707l-.293-.293h-.634c-3.187 0-5.78 2.593-5.78 5.78v4.22c0 3.78 2.11 7.076 5.213 8.776l-.739 1.847c-.126.314-.399.543-.732.609l-5.367 1.073c-.749.15-1.472.386-2.166.684-1.404-1.496-2.209-3.491-2.209-5.552zm8-7.201v-4.22c0-2.024 1.6-3.683 3.602-3.776 2.084 1.935 4.781 2.996 7.64 2.996h4.758v5c0 4.411-3.589 8-8 8s-8-3.589-8-8zm-19 4c.201 0 2.201.251 10.601 8.874.244.384.506.756.801 1.105-.918.621-1.749 1.374-2.446 2.254-1.224 1.546-2.007 3.396-2.265 5.35l-.198 1.494c-6.971-3.079-8.493-13.112-8.493-15.077 0-2.71.299-4 2-4zm-2 19c0-2.586.237-3 1-3 .334 0 .686.051 1.044.129 1.493 2.126 3.505 3.958 6.179 4.988l-.84 6.352c-5.429-1.707-7.383-7.128-7.383-8.469zm10.673-1.155c.211-1.597.851-3.107 1.851-4.369 1.311-1.655 3.173-2.795 5.243-3.209l5.367-1.073c.998-.2 1.819-.883 2.197-1.828l.724-1.809c.931.287 1.92.443 2.945.443s2.014-.156 2.945-.444l.724 1.809c.223.557.612 1.006 1.088 1.336-1.057.721-1.757 1.927-1.757 3.299 0 .029.007.056.007.084l-10.306 2.291c-2.149.479-3.947 1.882-4.933 3.852-.502 1.004-.768 2.13-.768 3.255 0 .192.011.383.019.574l-2.847 14.944h-5.032zm34.155 19.155-2.845-14.938-.025.005c-.077-1.263-.384-2.492-.929-3.628.929-.55 1.62-1.46 1.87-2.541 1.212-.279 2.203-1.118 2.717-2.221.914 1.221 1.511 2.652 1.712 4.167l2.531 19.156zm5.788-9.531-.84-6.352c2.674-1.03 4.686-2.862 6.179-4.989.358-.077.71-.128 1.045-.128.763 0 1 .414 1 3 0 1.341-1.954 6.761-7.384 8.469z"/></g></g></svg>