<svg id="Capa_1" enable-background="new 0 0 512 512" height="512" viewBox="0 0 512 512" width="512" xmlns="http://www.w3.org/2000/svg"><g><path d="m234.084 441.995h100.004c8.284 0 15-6.716 15-15s-6.716-15-15-15h-100.004c-8.285 0-15 6.716-15 15s6.715 15 15 15z"/><path d="m479.088 482h-5.002v-110.008h5.002c8.284 0 15-6.716 15-15s-6.716-15-15-15h-45.004v-50.983c0-8.284-6.716-15-15-15h-15.002v-15.003c0-8.284-6.716-15-15-15s-15 6.716-15 15v15.003h-224.976-.01-.01c-22.686 0-41.142-18.456-41.142-41.143 0-22.685 18.456-41.141 41.142-41.141h39.957c9.697 0 25.23 20.825 32.251 35.202 3.253 6.711 10.939 10.011 18.047 7.749 1.826-.581 44.744-14.739 44.744-57.951 0-10.997-4.235-22.679-7.481-30.016 3.245-7.338 7.481-19.02 7.481-30.018 0-10.996-4.235-22.678-7.481-30.015 3.246-7.338 7.481-19.021 7.481-30.018 0-43.211-42.918-57.369-44.744-57.95-7.107-2.263-14.794 1.039-18.047 7.75-6.977 14.386-22.475 35.2-32.267 35.2h-39.94c-72.33 0-131.174 58.845-131.174 131.175 0 67.257 50.883 122.844 116.174 130.311v36.847h-45.005c-8.284 0-15 6.716-15 15s6.716 15 15 15h5.001v110.009h-5.001c-8.284 0-15 6.716-15 15s6.716 15 15 15h390.006c8.284 0 15-6.716 15-15s-6.715-15-15-15zm-399.954-234.135c-19.229-18.428-31.222-44.357-31.222-73.03 0-55.788 45.386-101.175 101.174-101.175h39.957c15.106 0 29.909-9.321 43.998-27.704 2.936-3.832 5.529-7.658 7.706-11.105 6.409 4.568 13.339 12.194 13.339 23.81 0 6.873-4.48 17.629-7.29 22.768-2.492 4.513-2.492 9.989 0 14.501 2.378 4.307 7.29 15.538 7.29 22.764 0 6.873-4.48 17.629-7.29 22.768-2.492 4.513-2.492 9.988 0 14.501 2.378 4.307 7.29 15.54 7.29 22.765 0 11.615-6.93 19.241-13.338 23.811-2.176-3.447-4.77-7.273-7.706-11.105-14.088-18.384-28.892-27.705-44.014-27.705h-39.94c-39.228 0-71.142 31.913-71.142 71.141-.002 4.435.407 8.778 1.188 12.995zm84.952 58.143h239.999v35.983h-239.999zm280 175.992h-320.003v-110.008h320.003z"/><path d="m394.09 441.995c8.286 0 15.003-6.717 15.003-15.003 0-8.285-6.717-15.002-15.003-15.002-8.285 0-15.002 6.717-15.002 15.002 0 8.287 6.717 15.003 15.002 15.003z"/><path d="m174.08 441.995c8.286 0 15.003-6.717 15.003-15.003 0-8.285-6.717-15.002-15.003-15.002-8.285 0-15.002 6.717-15.002 15.002 0 8.287 6.716 15.003 15.002 15.003z"/></g></svg>