<svg height="512" viewBox="0 0 512 512" width="512" xmlns="http://www.w3.org/2000/svg"><g id="Out_line" data-name="Out line"><circle cx="144" cy="344" r="8"/><path d="m485.43262 18.127a7.99856 7.99856 0 0 0 -8.167-1.6455 432.95643 432.95643 0 0 0 -157.13476 100.07319l-141.78809 141.78808-150.62695 150.62696a39.74237 39.74237 0 0 0 -11.71582 28.28515v18.74512a40 40 0 0 0 80 0 30.42341 30.42341 0 0 1 8.9707-21.65625l84.68653-84.68652 24.33789-24.33789a31.11693 31.11693 0 0 1 44.00976 0l12.33789 12.33789a8.003 8.003 0 0 0 11.31446 0l58.32129-58.32129a577.268 577.268 0 0 0 147.72948-253.19434 8.002 8.002 0 0 0 -2.27538-8.0146zm-309.43262 322.55952-82.34375 82.34278a46.32144 46.32144 0 0 0 -13.65625 32.9707 24 24 0 0 1 -48 0v-18.74512a23.84267 23.84267 0 0 1 7.03027-16.9707l136.96973-136.9707zm48.57129-39.07519a47.1315 47.1315 0 0 0 -21.89063 12.39355l-10.68066 10.68067v-57.3711l139.44531-139.44531a416.885 416.885 0 0 1 106.50147-76.95166 538.775 538.775 0 0 1 -126.25342 200.1333l-54.32007 54.31983a47.3456 47.3456 0 0 0 -32.802-3.75928zm104.09277-33.58985-52.66406 52.66504-5.65625-5.65722 52.66406-52.66407a554.688 554.688 0 0 0 135.04468-220.94335q4.82922-2.12256 9.70825-4.12012a561.30481 561.30481 0 0 1 -139.09668 230.71972z"/><path d="m208 264h16v24h-16z"/><path d="m243.029 219.999h33.941v16.001h-33.941z" transform="matrix(.707 -.707 .707 .707 -85.068 250.627)"/><path d="m283.029 179.999h33.941v16.001h-33.941z" transform="matrix(.707 -.707 .707 .707 -45.068 267.196)"/><circle cx="56" cy="456" r="8"/></g></svg>