<svg id="Capa_1" enable-background="new 0 0 512 512" height="512" viewBox="0 0 512 512" width="512" xmlns="http://www.w3.org/2000/svg"><g><circle cx="436" cy="316" r="10"/><circle cx="136" cy="96" r="10"/><circle cx="56" cy="336" r="10"/><path d="m48.46 133.56c8.668 41.594 42.439 75.347 84.033 83.99 14.573 3.033 29.085 3.26 43.348.659 2.957 2.685 6.414 4.739 10.159 6.063v21.728h-37.15c-11.261 0-22.321 2.952-32.016 8.428-5.488-5.299-12.895-8.428-20.834-8.428-16.542 0-30 13.458-30 30 0 13.054 8.384 24.182 20.049 28.296-.401 15.421 5.094 30.501 15.449 41.946 19.24 21.265 50.997 26.005 75.59 11.087 17.068-10.359 38.102-10.103 52.338.633 11.153 8.417 16.574 20.859 16.574 38.038 0 5.522 4.477 10 10 10 27.495 0 49.925-22.364 50-49.853.075-27.651 22.505-50.147 50-50.147h10c57.315 0 105.329-49.042 99.535-109.791-4.935-51.648-50.908-90.209-103.405-90.209h-16.13v-46h10c4.044 0 7.691-2.437 9.239-6.173 1.548-3.737.692-8.038-2.167-10.898l-40-40c-3.905-3.904-10.237-3.904-14.143 0l-40 40c-2.86 2.86-3.715 7.161-2.167 10.898 1.547 3.736 5.194 6.173 9.238 6.173h10v46h-5.857l-37.071-37.071c-1.876-1.875-4.42-2.929-7.072-2.929s-5.196 1.054-7.071 2.929l-24.437 24.437c-7.721-6.531-12.018-17.316-10.792-28.302 1.534-13.736 11.455-22.923 24.355-24.543 4.022-.509 7.339-3.396 8.398-7.31s-.351-8.08-3.568-10.547c-19.337-14.827-42.465-22.664-66.885-22.664-69.445 0-122.133 63.544-107.54 133.56zm48.06 152.421c-.038.002-.075.004-.112.007-.137.008-.271.012-.408.012-5.514 0-10-4.486-10-10s4.486-10 10-10c5.496 0 10 4.432 10 10 0 5.336-4.165 9.721-9.48 9.981zm265.61-159.981c42.957 0 79.632 31.675 83.496 72.109 4.625 48.5-33.602 87.891-79.626 87.891h-10c-38.494 0-69.896 31.443-70 70.093-.036 13.251-8.731 24.517-20.706 28.432-2.312-18.047-10.296-32.319-23.822-42.527-20.713-15.624-50.758-16.332-74.758-1.767-16.251 9.859-37.463 6.874-50.385-7.406-7.126-7.877-10.727-17.924-10.284-28.544 11.681-4.132 19.955-15.263 19.955-28.281 0-1.224-.082-2.437-.228-3.639 6.919-4.127 14.919-6.361 23.078-6.361h177.15c22.056 0 40-17.944 40-40s-17.944-40-40-40c0 0-18.649.024-20 .039v-20.039h10c4.044 0 7.691-2.437 9.239-6.173 1.548-3.737.692-8.038-2.167-10.898l-22.929-22.929zm-106.13 60c-5.523 0-10 4.478-10 10v10h-20v-10c0-5.522-4.477-10-10-10s-10 4.478-10 10v10h-10c-5.479 0-10-4.44-10-10v-30h100s-.008 30.037-.009 30.142c-.07 5.436-4.552 9.858-9.991 9.858h-10v-10c0-5.522-4.477-10-10-10zm10 40v20h-60v-20zm40-120v-46h20v46zm10-81.857 15.858 15.857h-31.716zm-11.761 181.853c1.939-.031 21.761-.056 21.761-.056 11.028 0 20 9.032 20 20.06s-8.972 20-20 20h-40v-21.732c8.457-3.022 15.201-9.813 18.239-18.272zm-68.239-115.853 55.858 55.857h-111.716zm-80-70.143c13.499 0 26.514 2.926 38.414 8.563-11.462 7.591-18.965 19.728-20.591 34.281-1.931 17.299 4.468 33.92 16.469 44.722l-41.363 41.363c-2.86 2.86-3.715 7.161-2.167 10.898 1.548 3.736 5.194 6.173 9.239 6.173h10v30c0 1.152.086 2.292.215 3.424-9.736 1.101-19.673.62-29.65-1.455-33.918-7.049-61.457-34.572-68.525-68.489-11.975-57.453 31.085-109.48 87.959-109.48z"/><path d="m502 100h-10v-10c0-5.522-4.477-10-10-10s-10 4.478-10 10v10h-10c-5.523 0-10 4.478-10 10s4.477 10 10 10h10v10c0 5.522 4.477 10 10 10s10-4.478 10-10v-10h10c5.523 0 10-4.478 10-10s-4.477-10-10-10z"/><path d="m376 386c5.523 0 10-4.478 10-10v-10h10c5.523 0 10-4.478 10-10s-4.477-10-10-10h-10v-10c0-5.522-4.477-10-10-10s-10 4.478-10 10v10h-10c-5.523 0-10 4.478-10 10s4.477 10 10 10h10v10c0 5.522 4.477 10 10 10z"/><path d="m30 186c-5.523 0-10 4.478-10 10v10h-10c-5.523 0-10 4.478-10 10s4.477 10 10 10h10v10c0 5.522 4.477 10 10 10s10-4.478 10-10v-10h10c5.523 0 10-4.478 10-10s-4.477-10-10-10h-10v-10c0-5.522-4.477-10-10-10z"/><path d="m416 0c-16.542 0-30 13.458-30 30s13.458 30 30 30 30-13.458 30-30-13.458-30-30-30zm0 40c-5.514 0-10-4.486-10-10s4.486-10 10-10 10 4.486 10 10-4.486 10-10 10z"/><circle cx="133" cy="482" r="10"/><path d="m502 472h-13.82l-17.236-34.472c-1.694-3.388-5.156-5.528-8.944-5.528-27.708 0-59.468-3.228-82.886-8.423-37.593-7.787-45.688-11.577-63.114-11.577-25.757 0-47.852 9.457-60 23.881-12.148-14.424-34.243-23.881-60-23.881-17.406 0-25.369 3.758-63.116 11.577-23.416 5.195-55.176 8.423-82.884 8.423-3.788 0-7.25 2.14-8.944 5.528l-17.236 34.472h-13.82c-5.523 0-10 4.478-10 10s4.477 10 10 10h78c5.523 0 10-4.478 10-10s-4.477-10-10-10h-41.82l10.024-20.048c27.8-.427 57.649-3.666 81.009-8.85 39.537-8.279 44.65-11.102 58.787-11.102 27.103 0 50 13.738 50 30 0 5.522 4.477 10 10 10s10-4.478 10-10c0-16.262 22.897-30 50-30 14.143 0 19.23 2.819 58.784 11.103 23.362 5.184 53.211 8.423 81.011 8.85l10.025 20.047h-169.82c-2.652 0-5.196 1.054-7.071 2.929l-17.071 17.071h-31.716l-17.071-17.071c-1.875-1.875-4.419-2.929-7.071-2.929h-38c-5.523 0-10 4.478-10 10s4.477 10 10 10h33.858l17.071 17.071c1.875 1.875 4.419 2.929 7.071 2.929h40c2.652 0 5.196-1.054 7.071-2.929l17.071-17.071h201.858c5.523 0 10-4.478 10-10s-4.477-10-10-10z"/></g></svg>