<svg id="Capa_1" enable-background="new 0 0 512 512" height="512" viewBox="0 0 512 512" width="512" xmlns="http://www.w3.org/2000/svg"><path d="m512 153.041c0-24.66-12.209-57.854-69.695-77.295-8.209-19.238-19.852-35.034-34.906-47.249-3.221-2.615-7.951-2.122-10.563 1.1-2.613 3.221-2.121 7.95 1.1 10.563 29.167 23.665 43.955 63.4 43.955 118.102 0 9.306-.441 18.65-1.309 27.772-.028.292-.034.581-.029.868-5.824 31.048-16.495 59.101-31.002 81.912.723-13.428-2.207-27.09-8.501-39.547-1.871-3.702-6.387-5.186-10.09-3.316-3.701 1.871-5.186 6.388-3.316 10.09 5.094 10.078 7.482 21.078 6.922 31.866-12.961-28.66-41.594-47.158-73.062-47.158-31.469 0-60.102 18.496-73.062 47.159-.652-12.59 2.815-25.701 9.79-36.982 13.785-22.297 39.07-34.044 61.492-28.575 1.169.286 2.392.286 3.561 0 15.193-3.709 32.459.532 46.184 11.339 3.258 2.567 7.98 2.005 10.546-1.255 2.566-3.258 2.005-7.98-1.255-10.546-16.802-13.23-38.068-18.597-57.255-14.535-28.192-5.985-59.24 8.486-76.047 35.673-8.716 14.096-12.852 29.911-11.999 45.788-14.404-22.646-25.027-50.46-30.879-81.243-.969-9.621-1.462-19.482-1.462-29.31 0-91.742 42.754-142.267 120.387-142.267 18.761 0 35.836 3.065 50.753 9.109 3.848 1.559 8.224-.295 9.78-4.14 1.558-3.844-.296-8.223-4.14-9.78-16.717-6.773-35.69-10.208-56.393-10.208-39.516 0-72.654 12.668-95.835 36.633-10.304 10.654-18.606 23.388-24.901 38.114-57.585 19.45-69.76 52.705-69.76 77.318 0 22.14 9.509 43.579 27.533 62.222-2.465 15.333-3.719 31.783-3.719 49.255 0 47.039 8.945 92.755 25.867 132.204 1.635 3.812 6.05 5.575 9.862 3.941 3.812-1.635 5.576-6.051 3.941-9.862-16.126-37.593-24.651-81.261-24.651-126.282 0-31.477 4.192-59.339 12.458-82.813.13-.369.524-1.496 2.135-1.345 1.112.1 1.763.697 1.937 1.777 8.091 50.186 28.2 93.878 56.623 123.028 12.096 12.408 32.259 12.963 44.948 1.244 9.162-8.463 21.081-13.123 33.562-13.123 12.482 0 24.401 4.66 33.563 13.123 12.69 11.721 32.854 11.162 44.948-1.244 28.422-29.15 48.531-72.842 56.623-123.029.174-1.079.825-1.677 1.937-1.777 1.615-.133 2.005.978 2.135 1.346 8.267 23.474 12.458 51.336 12.458 82.813 0 127.642-68.036 231.486-151.664 231.486-43.548 0-85.107-28.84-114.021-79.126-2.067-3.596-6.658-4.833-10.253-2.767-3.595 2.067-4.834 6.658-2.767 10.253 31.667 55.073 77.972 86.659 127.042 86.659 45.11 0 87.302-26.048 118.803-73.347 30.876-46.36 47.88-107.855 47.88-173.159 0-17.471-1.254-33.922-3.72-49.255 18.022-18.643 27.531-40.085 27.531-62.222zm-168.05 86.735c-3.373 5.94-12.428 10.304-22.496 10.304-11.107 0-19.301-4.791-22.455-10.284 7.088-2.615 14.687-4.027 22.504-4.027 7.796 0 15.375 1.405 22.447 4.007zm-175.818-63.06c-2.242 6.366-4.2 13.022-5.879 19.95-10.645-13.662-16.226-28.533-16.226-43.625 0-25.658 16.205-45.396 48.191-58.81-5.396 18.766-8.12 40.138-8.12 64.031 0 2.397.035 4.795.09 7.192-.138-.016-.273-.042-.413-.054-7.915-.717-15.01 3.837-17.643 11.316zm197.125 118.659c-11.945-11.033-27.484-17.109-43.754-17.109-16.269 0-31.808 6.076-43.753 17.109-6.768 6.251-17.534 5.94-24.003-.695-3.743-3.839-7.325-7.968-10.749-12.347.868.32 1.775.574 2.723.737.897.155 1.786.23 2.664.23 5.864-.001 11.134-3.359 13.605-8.9 5.151-11.548 13.428-21.079 23.564-27.788 5.876 11.066 19.68 18.488 35.899 18.488 16.123 0 30.007-7.545 35.898-18.555 10.182 6.712 18.496 16.269 23.664 27.854 2.843 6.371 9.377 9.858 16.267 8.67.949-.163 1.857-.418 2.727-.739-3.425 4.38-7.007 8.51-10.751 12.349-6.467 6.634-17.236 6.946-24.001.696zm91.975-129.975c-.137.012-.27.038-.407.053.056-2.397.085-4.796.085-7.191 0-23.925-2.703-45.288-8.069-64.02 31.96 13.41 48.14 33.143 48.14 58.8 0 15.09-5.581 29.963-16.226 43.625-1.679-6.928-3.637-13.584-5.879-19.951-2.636-7.478-9.722-12.031-17.644-11.316z"/><ellipse cx="267.93" cy="169.441" rx="13.534" ry="13.534" transform="matrix(.005 -1 1 .005 97.101 436.487)"/><ellipse cx="375.077" cy="170.853" rx="13.534" ry="13.534" transform="matrix(.005 -1 1 .005 202.278 545.038)"/><path d="m287.188 147.525c2.073 0 4.137-.854 5.622-2.527 2.752-3.103 2.467-7.849-.636-10.602-5.761-5.109-14.598-8.04-24.244-8.04s-18.483 2.931-24.244 8.04c-3.103 2.753-3.387 7.499-.636 10.602 2.753 3.104 7.499 3.389 10.602.636 2.32-2.058 7.29-4.257 14.278-4.257s11.958 2.199 14.278 4.257c1.43 1.269 3.208 1.891 4.98 1.891z"/><path d="m394.335 148.444c2.074 0 4.138-.854 5.622-2.528 2.752-3.104 2.467-7.849-.637-10.601-5.761-5.109-14.598-8.039-24.243-8.039s-18.482 2.93-24.243 8.039c-3.104 2.752-3.388 7.497-.637 10.601 2.75 3.104 7.497 3.39 10.601.637 2.321-2.057 7.291-4.256 14.279-4.256 6.989 0 11.958 2.199 14.279 4.256 1.43 1.268 3.209 1.891 4.979 1.891z"/><path d="m123.983 97.432c11.148-9.656 17.693-23.812 17.693-38.653 0-28.175-22.922-51.096-51.096-51.096h-39.484c-28.175 0-51.096 22.921-51.096 51.096 0 28.174 22.921 51.096 51.096 51.096h33.017l26.91 16.076c1.899 1.133 4.001 1.694 6.094 1.694 2.578 0 5.139-.85 7.287-2.524 3.891-3.034 5.488-8.048 4.066-12.775zm-12.184-9.482c-3.116 2.271-4.467 6.27-3.359 9.951l3.305 10.986-21.34-12.749c-1.406-.839-3.014-1.282-4.651-1.282h-34.658c-19.893 0-36.077-16.184-36.077-36.077s16.184-36.077 36.077-36.077h39.484c19.893 0 36.077 16.184 36.077 36.077 0 11.485-5.555 22.389-14.858 29.171z"/><path d="m92.221 36.689h-42.766c-4.148 0-7.51 3.362-7.51 7.51s3.362 7.51 7.51 7.51h42.765c4.148 0 7.51-3.362 7.51-7.51s-3.361-7.51-7.509-7.51z"/><path d="m92.221 64.806h-42.766c-4.148 0-7.51 3.362-7.51 7.51s3.362 7.51 7.51 7.51h42.765c4.148 0 7.51-3.362 7.51-7.51s-3.361-7.51-7.509-7.51z"/><circle cx="107.203" cy="184.133" r="10.56"/><path d="m79.113 178.151c-14.321 0-25.973-11.651-25.973-25.974 0-14.321 11.651-25.973 25.973-25.973s25.974 11.651 25.974 25.973c0 14.323-11.651 25.974-25.974 25.974zm0-36.946c-6.051 0-10.973 4.922-10.973 10.973s4.922 10.974 10.973 10.974 10.974-4.923 10.974-10.974-4.923-10.973-10.974-10.973z"/></svg>