<svg height="512pt" viewBox="-1 0 512 512.0038" width="512pt" xmlns="http://www.w3.org/2000/svg"><path d="m397.394531 48.003906h88v16h-88zm0 0"/><path d="m381.394531 80.003906h96v16h-96zm0 0"/><path d="m509.394531 104.003906c.019531-39.65625-22.527343-75.871094-58.117187-93.355468-35.59375-17.484376-78.035156-13.195313-109.410156 11.058593-59.496094-30.992187-130.855469-28.65625-188.199219 6.160157-57.339844 34.816406-92.328125 97.054687-92.273438 164.136718v21.984375l-61.394531 114.015625h45.394531v104h80v80h16v-80h43.3125l74.34375-74.34375-11.3125-11.3125-69.65625 69.65625h-116.6875v-104h-34.609375l50.609375-93.984375v-26.015625c0-60.433594 31.011719-116.640625 82.132813-148.875 51.125-32.230468 115.207031-35.976562 169.738281-9.925781-6.03125 6.476563-11.214844 13.695313-15.421875 21.480469-27.40625-13.585938-60.589844-5.882813-79.207031 18.386718-18.617188 24.265626-17.460938 58.3125 2.757812 81.261719-22.257812 19.902344-29.921875 51.472657-19.269531 79.363281 10.652344 27.890626 37.414062 46.3125 67.269531 46.308594 1.414063 0 2.863281-.046875 4.375-.160156 22.453125 36.855469 69.242188 50.601562 108.0625 31.753906-10.765625 19.152344-24.105469 36.746094-39.636719 52.285156l-56.800781 56.800782v91.320312h16v-84.6875l52.121094-52.113281c24.640625-24.621094 44.03125-53.992187 56.992187-86.328125 6.074219-7.441406 10.824219-15.871094 14.039063-24.925781 38.484375-1.738281 68.804687-33.421875 68.847656-71.945313.03125-14.128906-4.144531-27.949218-12-39.695312 7.855469-14.890625 11.976563-31.46875 12-48.304688zm-208.175781 163.609375-2.617188-4.953125-5.542968.75c-10.886719 1.628906-22.011719-.113281-31.878906-4.992187l56.519531-62.789063 30.046875 30.039063-40.183594 51.65625c-2.390625-3.050781-4.511719-6.300781-6.34375-9.710938zm136.175781-19.609375-8.761719-.40625-1.671874 6.183594c-5.980469 22.152344-22.742188 39.792969-44.5625 46.894531-21.824219 7.097657-45.757813 2.699219-63.628907-11.695312l102.398438-131.671875 54.730469 75.246094c-10.371094 9.910156-24.160157 15.441406-38.503907 15.449218zm44.222657-90.265625c13.851562 17.761719 15.640624 42.117188 4.535156 61.714844l-64.542969-88.753906-64 82.242187-40.550781-40.5625-69.265625 77c-12.742188-11.519531-19.472657-28.261718-18.257813-45.394531s10.242188-32.757813 24.484375-42.363281l8.796875-5.960938-8.152344-6.808594c-19.421874-16.515624-22.546874-45.335937-7.109374-65.628906 15.433593-20.292968 44.042968-24.976562 65.144531-10.667968l8 5.601562 3.894531-9c12.796875-30.359375 41.480469-51.027344 74.332031-53.558594 32.847657-2.527344 64.359375 13.503906 81.65625 41.542969 17.296875 28.042969 17.480469 63.394531.476563 91.613281l-2.777344 4.691406zm0 0"/><path d="m341.394531 96.003906c-17.671875 0-32 14.328125-32 32s14.328125 32 32 32 32-14.328125 32-32-14.328125-32-32-32zm0 48c-8.835937 0-16-7.164062-16-16 0-8.835937 7.164063-16 16-16 8.835938 0 16 7.164063 16 16 0 8.835938-7.164062 16-16 16zm0 0"/><path d="m469.394531 352.003906c-5.875 0-11.671875 1.308594-16.976562 3.832032-4.605469-2.519532-9.773438-3.835938-15.023438-3.832032-12.9375.023438-24.589843 7.832032-29.527343 19.792969-4.933594 11.960937-2.183594 25.714844 6.976562 34.855469-.960938 3.023437-1.449219 6.179687-1.449219 9.351562-.027343 14.507813 9.726563 27.207032 23.75 30.925782 14.019531 3.71875 28.789063-2.480469 35.953125-15.09375 21.296875-1.957032 37.285156-20.320313 36.296875-41.6875-.992187-21.363282-18.613281-38.167969-40-38.144532zm.34375 64-7.351562-.433594-1.976563 5.648438c-2.523437 7.386719-10.027344 11.859375-17.722656 10.5625-7.699219-1.292969-13.324219-7.972656-13.292969-15.777344.023438-2.75.769531-5.445312 2.160157-7.816406l3.75-6.625-6.398438-4.078125c-5.007812-3.121094-7.882812-8.753906-7.464844-14.640625.414063-5.886719 4.050782-11.0625 9.449219-13.445312 5.394531-2.386719 11.671875-1.59375 16.304687 2.0625l4.480469 3.503906 4.796875-3.097656c8.574219-5.558594 19.722656-5.082032 27.789063 1.191406 8.066406 6.269531 11.277343 16.957031 8.003906 26.632812-3.273437 9.679688-12.3125 16.226563-22.527344 16.3125zm0 0"/><path d="m437.394531 496.003906h16v16h-16zm0 0"/><path d="m437.394531 464.003906h16v16h-16zm0 0"/></svg>