<svg id="Capa_1" enable-background="new 0 0 511.937 511.937" height="512" viewBox="0 0 511.937 511.937" width="512" xmlns="http://www.w3.org/2000/svg"><g><path d="m494.51 55.857c-11.27-11.313-26.255-17.542-42.196-17.542-14.266 0-27.767 4.99-38.52 14.144-21.741-8.462-47.101-3.382-63.876 13.458-1.573 1.579-3.039 3.225-4.398 4.928-27.824-13.112-58.618-20.012-89.552-20.012-30.935 0-61.726 6.9-89.552 20.012-1.36-1.704-2.826-3.35-4.399-4.928-16.777-16.841-42.134-21.923-63.876-13.457-10.755-9.155-24.255-14.144-38.519-14.144-.001 0 0 0-.001 0-15.94 0-30.927 6.23-42.195 17.542-22.058 22.144-23.175 57.47-3.352 80.954-8.448 21.805-3.398 47.255 13.373 64.09 6.611 6.636 14.5 11.523 23.111 14.43-3.455 15.319-5.204 31.055-5.204 46.896 0 116.564 94.481 211.395 210.614 211.395s210.614-94.831 210.614-211.395c0-15.842-1.749-31.579-5.204-46.896 8.611-2.906 16.501-7.793 23.111-14.429 16.771-16.835 21.821-42.285 13.373-64.09 19.825-23.482 18.707-58.81-3.352-80.956zm-459.732 83.727c2.171-4.014 1.35-8.987-1.996-12.089-.402-.373-.799-.754-1.187-1.143-15.483-15.544-15.483-40.836 0-56.379 7.488-7.518 17.441-11.658 28.026-11.657 10.584 0 20.537 4.14 28.027 11.66.388.388.764.783 1.132 1.183 3.106 3.381 8.118 4.212 12.148 2.015 15.3-8.337 34.592-5.517 46.918 6.858 15.484 15.543 15.484 40.835 0 56.379-7.6 7.629-17.67 11.76-28.449 11.654-2.68-.031-5.276 1.027-7.177 2.928-1.902 1.901-2.958 4.488-2.929 7.177.114 10.813-4.015 20.976-11.626 28.617-7.488 7.518-17.441 11.658-28.026 11.657-10.584 0-20.537-4.14-28.024-11.657-12.349-12.399-15.161-31.809-6.837-47.203zm221.19 314.038c-105.105 0-190.614-85.859-190.614-191.395 0-14.806 1.684-29.506 5.01-43.788 15.671-.185 30.375-6.397 41.473-17.538 9.173-9.209 14.977-20.853 16.821-33.479 12.583-1.858 24.186-7.688 33.359-16.898 16.711-16.775 21.404-41.114 14.081-62.139 25.05-11.653 51.878-17.554 79.869-17.554 27.99 0 54.818 5.901 79.869 17.554-7.323 21.024-2.629 45.364 14.081 62.138 9.175 9.21 20.775 15.04 33.359 16.898 1.845 12.626 7.648 24.27 16.821 33.479 11.099 11.141 25.802 17.353 41.474 17.538 3.326 14.28 5.01 28.98 5.01 43.788.001 105.536-85.508 191.396-190.613 191.396zm224.375-327.274c-.391.392-.787.773-1.189 1.146-3.346 3.103-4.167 8.076-1.996 12.089 8.324 15.395 5.513 34.805-6.838 47.203-7.487 7.517-17.441 11.657-28.025 11.657-10.585.001-20.538-4.14-28.026-11.657-7.611-7.641-11.74-17.804-11.626-28.617.029-2.689-1.026-5.275-2.929-7.177-1.876-1.876-4.42-2.929-7.07-2.929-.035 0-.071 0-.107.001-10.717.079-20.85-4.025-28.449-11.655-15.484-15.544-15.484-40.835 0-56.379 12.328-12.375 31.62-15.193 46.918-6.858 4.029 2.196 9.042 1.366 12.148-2.015.368-.4.744-.795 1.135-1.187 7.487-7.517 17.44-11.657 28.024-11.657 10.585 0 20.538 4.14 28.026 11.657 15.484 15.546 15.484 40.838.004 56.378z"/><path d="m255.968 367.109c38.146 0 69.182-31.138 69.182-69.412s-31.035-69.412-69.182-69.412-69.182 31.138-69.182 69.412 31.035 69.412 69.182 69.412zm0-118.824c27.119 0 49.182 22.166 49.182 49.412s-22.063 49.412-49.182 49.412-49.182-22.166-49.182-49.412 22.063-49.412 49.182-49.412z"/><path d="m378.57 208.702c-3.914-3.898-10.244-3.886-14.142.028l-10.86 10.903-10.86-10.903c-3.898-3.913-10.228-3.925-14.143-.028-3.912 3.898-3.925 10.229-.027 14.142l10.916 10.958-10.916 10.958c-3.897 3.913-3.885 10.244.027 14.142 1.952 1.944 4.505 2.915 7.058 2.915 2.565 0 5.131-.981 7.085-2.943l10.86-10.903 10.86 10.903c1.954 1.961 4.52 2.943 7.085 2.943 2.553 0 5.105-.971 7.058-2.915 3.912-3.898 3.925-10.23.027-14.142l-10.915-10.958 10.915-10.958c3.897-3.912 3.885-10.244-.028-14.142z"/><path d="m176.314 261.818c2.553 0 5.105-.971 7.058-2.915 3.912-3.898 3.925-10.23.027-14.142l-10.916-10.958 10.916-10.958c3.897-3.913 3.885-10.244-.027-14.142-3.914-3.898-10.244-3.886-14.143.028l-10.86 10.903-10.86-10.903c-3.897-3.913-10.227-3.925-14.143-.028-3.912 3.898-3.925 10.229-.027 14.142l10.916 10.958-10.916 10.958c-3.897 3.913-3.885 10.244.027 14.142 1.952 1.944 4.505 2.915 7.058 2.915 2.565 0 5.131-.981 7.085-2.943l10.86-10.903 10.86 10.903c1.954 1.961 4.519 2.943 7.085 2.943z"/><path d="m323.43 373.902c-18.022 18.092-41.98 28.056-67.462 28.056s-49.44-9.964-67.462-28.056c-3.897-3.913-10.228-3.925-14.143-.028-3.912 3.898-3.925 10.229-.027 14.142 21.803 21.887 50.793 33.941 81.632 33.941s59.829-12.054 81.632-33.941c3.897-3.913 3.885-10.244-.027-14.142-3.915-3.898-10.245-3.886-14.143.028z"/></g></svg>